<svg width="164" height="156" viewBox="0 0 164 156" fill="none" xmlns="http://www.w3.org/2000/svg">
<path d="M143.211 120.33C143.211 129.287 135.595 136.544 126.195 136.544H37.7112C28.3149 136.544 20.6951 129.287 20.6951 120.33V36.0201C20.6951 27.0638 28.3149 19.8066 37.7112 19.8066H126.195C135.595 19.8066 143.211 27.0638 143.211 36.0201V120.33Z" fill="#673AB7"/>
<path d="M112.684 83.3635C110.472 80.4451 107.273 78.4346 103.155 77.3645C103.155 77.3645 106.627 76.1647 109.757 71.6898C111.629 68.8362 112.582 65.399 112.582 61.378C112.582 54.4062 109.928 49.0558 104.619 45.3915C99.3096 41.7273 93.3199 39.2628 83.1443 39.2628H51.3241V117.088H86.8197C96.4509 117.023 103.7 115.045 108.634 111.251C113.535 107.392 115.985 101.685 115.985 94.0644C115.985 89.8489 114.896 86.282 112.684 83.3635ZM71.7435 52.2336C71.7435 52.2336 85.9349 52.2336 86.2072 52.2336C91.3801 52.2336 95.566 56.2221 95.566 61.151C95.566 66.0799 91.3801 70.0685 86.2072 70.0685C85.9349 70.0685 71.7435 70.0685 71.7435 70.0685V52.2336ZM88.7596 104.117H71.7435V84.6606H88.7596C94.4089 84.6606 98.9693 89.0058 98.9693 94.3887C98.9693 99.7716 94.4089 104.117 88.7596 104.117Z" fill="white"/>
</svg>
