<svg width="164" height="156" viewBox="0 0 164 156" fill="none" xmlns="http://www.w3.org/2000/svg">
<path d="M140.123 16.2135H24.4136L34.6233 126.465L82.2684 139.436L129.914 126.465L140.123 16.2135Z" fill="#0277BD"/>
<path d="M82.2683 25.9416V129.384L120.384 119.007L128.892 25.9416H82.2683Z" fill="#039BE5"/>
<path d="M113.238 42.1551H82.2683V55.1259H98.9441L97.9231 68.0967H82.2683V81.0675H97.2425L96.2215 95.6597L82.2683 100.199V113.819L109.154 105.388L111.536 68.0967L113.238 42.1551Z" fill="white"/>
<path d="M82.2684 42.1551V55.1259H51.9797L50.9587 42.1551H82.2684ZM66.6136 68.0967L67.2942 81.0675H82.2684V68.0967H66.6136ZM67.9749 87.5529H54.362L55.3829 105.388L82.2684 113.819V100.199L68.3152 95.6597L67.9749 87.5529Z" fill="#EEEEEE"/>
</svg>
