<svg width="164" height="156" viewBox="0 0 164 156" fill="none" xmlns="http://www.w3.org/2000/svg">
<path d="M139.532 16.2135H23.8225L34.0322 126.465L81.6774 139.436L129.323 126.465L139.532 16.2135Z" fill="#E65100"/>
<path d="M81.6775 25.9416V129.384L119.794 119.007L128.302 25.9416H81.6775Z" fill="#FF6D00"/>
<path d="M81.6775 81.0675V68.0967H110.945L108.563 105.388L81.6775 113.819V100.199L95.6307 95.6597L96.6517 81.0675H81.6775ZM111.966 55.1259L112.987 42.1551H81.6775V55.1259H111.966Z" fill="white"/>
<path d="M81.6771 100.199V113.819L54.7916 105.388L53.4303 87.5529H67.0433L67.7239 95.6597L81.6771 100.199ZM65.0013 55.1259H81.6771V42.1551H50.7078L53.09 81.0675H81.6771V68.0967H66.0223L65.0013 55.1259Z" fill="#EEEEEE"/>
</svg>
