<svg width="165" height="156" viewBox="0 0 165 156" fill="none" xmlns="http://www.w3.org/2000/svg">
<path d="M21.4115 136.368V19.6313H143.928V136.368H21.4115Z" fill="#FFD600"/>
<path d="M101.517 107.012C103.872 110.657 106.431 114.15 111.852 114.15C116.406 114.15 118.795 111.993 118.795 109.01C118.795 105.44 116.324 104.172 111.315 102.093L108.568 100.978C100.642 97.7739 95.3704 93.7594 95.3704 85.2798C95.3704 77.4649 101.649 71.5178 111.461 71.5178C118.448 71.5178 123.467 73.8233 127.088 79.8612L118.533 85.0722C116.651 81.8685 114.616 80.6071 111.461 80.6071C108.241 80.6071 106.203 82.5429 106.203 85.0722C106.203 88.1982 108.245 89.4629 112.958 91.3988L115.705 92.5142C125.047 96.305 130.315 100.177 130.315 108.88C130.315 118.258 122.542 123.398 112.108 123.398C101.901 123.398 96.1055 118.517 92.8793 112.476L101.517 107.012ZM62.0869 107.278C63.8089 110.216 66.426 112.476 70.19 112.476C73.7906 112.476 75.8631 111.121 75.8631 105.851V71.5145H87.2061V107.512C87.2061 118.43 80.5596 123.398 70.8536 123.398C62.0835 123.398 55.7535 117.736 53.1738 112.476L62.0869 107.278Z" fill="#000001"/>
</svg>
