<svg width="164" height="156" viewBox="0 0 164 156" fill="none" xmlns="http://www.w3.org/2000/svg">
<path d="M144.207 71.8388L88.7345 18.9828C87.0329 17.3615 84.6506 16.3887 82.2683 16.3887C79.8861 16.3887 77.5038 17.3615 75.8022 18.9828L63.8909 30.3323L77.8442 43.6273C79.2054 42.9788 80.5667 42.6545 82.2683 42.6545C88.0538 42.6545 92.478 46.87 92.478 52.3826C92.478 54.004 92.1377 55.3011 91.4571 56.5981L105.07 69.5689C106.431 68.9204 107.793 68.5961 109.494 68.5961C115.28 68.5961 119.704 72.8116 119.704 78.3242C119.704 83.8368 115.28 88.0523 109.494 88.0523C103.709 88.0523 99.2845 83.8368 99.2845 78.3242C99.2845 76.7029 99.6248 75.4058 100.305 74.1087L86.6925 61.1379C86.3522 61.1379 86.0119 61.4622 85.6716 61.4622V95.1862C89.7554 96.4833 92.478 100.05 92.478 104.266C92.478 109.778 88.0538 113.994 82.2683 113.994C76.4829 113.994 72.0587 109.778 72.0587 104.266C72.0587 100.05 74.7812 96.4833 78.8651 95.1862V61.1379C74.7812 59.8408 72.0587 56.2739 72.0587 52.0584C72.0587 50.437 72.399 49.1399 73.0796 47.8428L59.1264 34.5478L20.3296 71.8388C18.628 73.4602 17.6071 75.7301 17.6071 77.9999C17.6071 80.2698 18.628 82.5397 20.3296 84.1611L75.8022 137.017C77.5038 138.638 79.8861 139.611 82.2683 139.611C84.6506 139.611 87.0329 138.638 88.7345 137.017L144.207 84.1611C145.909 82.5397 146.93 80.2698 146.93 77.9999C146.93 75.7301 145.909 73.4602 144.207 71.8388Z" fill="#F4511E"/>
</svg>
