<svg width="164" height="156" viewBox="0 0 164 156" fill="none" xmlns="http://www.w3.org/2000/svg">
<g clip-path="url(#clip0)">
<path d="M102.474 25.0791C100.942 25.0426 99.6021 25.602 98.913 27.2193C97.7389 29.931 100.661 32.5819 101.708 33.9682C102.435 34.9288 103.38 36.0111 103.903 37.0933C104.248 37.8108 104.299 38.5282 104.592 39.2821C105.32 41.1426 106.481 43.2585 107.413 44.9852C107.885 45.8608 108.408 46.7728 109.008 47.551C109.378 48.0253 110.003 48.2441 110.105 48.9738C109.493 49.8006 109.454 51.0775 109.11 52.1232C107.553 56.8049 108.14 62.6296 110.399 66.083C111.101 67.1531 112.747 69.4271 114.993 68.5637C116.959 67.7976 116.525 65.4264 117.086 63.3227C117.214 62.8606 117.137 62.508 117.393 62.1918V62.2891C117.98 63.4321 118.579 64.5752 119.179 65.7061C120.519 67.749 122.88 69.877 124.871 71.3241C125.905 72.0658 126.722 73.3548 128.062 73.7926V73.6953H127.96C127.704 73.3062 127.296 73.1481 126.964 72.8441C126.186 72.1145 125.318 71.2024 124.68 70.3634C122.855 68.0165 121.247 65.4386 119.792 62.7633C119.09 61.4865 118.477 60.0759 117.89 58.7748C117.661 58.2641 117.661 57.5102 117.188 57.2426C116.537 58.2033 115.593 58.9694 115.095 60.1003C114.304 61.9 114.189 64.1009 113.896 66.3749C113.717 66.4357 113.794 66.387 113.704 66.4722C112.313 66.1438 111.815 64.7819 111.305 63.6145C110.003 60.6596 109.748 55.8929 110.909 52.5002C111.203 51.6125 112.543 48.84 112.007 48.0253C111.752 47.2105 110.884 46.7484 110.412 46.1283C109.812 45.3622 109.225 44.3529 108.816 43.4652C107.744 41.1548 106.736 38.4796 105.6 36.1448C105.064 35.0261 104.158 33.9074 103.405 32.9102C102.576 31.8158 101.657 31.0133 101.006 29.6756C100.789 29.2136 100.47 28.4596 100.815 27.9732C100.917 27.6449 101.07 27.5111 101.414 27.4017C101.989 26.9761 103.597 27.5355 104.209 27.7787C105.805 28.411 107.145 29.019 108.497 29.8702C109.148 30.2836 109.799 31.0741 110.59 31.3051H111.484C112.9 31.6091 114.47 31.3902 115.772 31.7793C118.094 32.4481 120.175 33.4939 122.051 34.6248C127.806 38.0783 132.516 43.0031 135.719 48.8765C136.242 49.825 136.472 50.737 136.931 51.7341C137.837 53.7527 138.999 55.8442 139.918 57.8142C140.824 59.7963 141.717 61.7784 143.006 63.42C143.682 64.2833 146.311 64.7576 147.498 65.2318C148.328 65.5723 149.706 65.925 150.485 66.3749C152.003 67.2383 153.458 68.2719 154.875 69.2325C155.589 69.7068 157.759 70.7404 157.874 71.6037C154.364 71.5186 151.684 71.8226 149.4 72.7468C148.749 73.0143 147.702 73.0143 147.6 73.7926C147.945 74.1452 148.009 74.6802 148.29 75.118C148.838 75.9571 149.757 77.0879 150.587 77.6838C151.493 78.3283 152.412 79.0214 153.382 79.5929C155.092 80.5779 157.006 81.1494 158.665 82.1466C159.635 82.7424 160.618 83.4842 161.562 84.1408C162.034 84.4813 162.341 84.992 162.953 85.1987V85.1015C162.634 84.7123 162.558 84.1773 162.264 83.776L160.95 82.5235C159.686 80.9305 158.078 79.52 156.368 78.3526C155.002 77.4163 151.952 76.1516 151.391 74.6438L151.289 74.5465C152.246 74.4492 153.382 74.1087 154.275 73.8777C155.781 73.5007 157.108 73.598 158.652 73.221C159.354 73.0265 160.056 72.8319 160.758 72.6495V72.2604C159.98 71.5065 159.418 70.485 158.563 69.7919C156.33 67.98 153.892 66.1682 151.378 64.6603C149.987 63.8213 148.264 63.2741 146.796 62.5688C146.299 62.3256 145.431 62.204 145.099 61.8027C144.321 60.8663 143.899 59.6747 143.3 58.5802C142.049 56.282 140.824 53.777 139.713 51.3571C138.96 49.7155 138.463 48.0861 137.518 46.6025C132.988 39.5132 128.113 35.2207 120.558 31.0133C118.949 30.1134 117.022 29.7729 114.98 29.3108C113.87 29.2379 112.785 29.1771 111.675 29.1163C111.011 28.8488 110.31 28.0705 109.684 27.6814C108.114 26.7451 105.026 25.1156 102.474 25.0791ZM113.283 35.3909C112.556 35.3787 112.032 35.476 111.484 35.5855V35.6827H111.586C111.93 36.3637 112.556 36.8015 112.99 37.3852C113.321 38.054 113.64 38.7228 113.972 39.3916L114.074 39.2943C114.687 38.8809 114.98 38.212 114.98 37.2028C114.725 36.9596 114.687 36.6434 114.483 36.3515C114.189 35.9503 113.64 35.7314 113.283 35.3909ZM6.74513 74.8748C5.76244 74.9113 4.69043 75.0937 3.52908 75.4463C1.58924 76.0057 0.63208 77.1123 0.63208 79.3619V102.904H7.17904V79.9334L16.2529 99.572C17.376 102.016 18.9074 102.892 21.9065 102.892C24.9184 102.892 26.386 102.016 27.5091 99.572L36.5829 80.432V102.904H43.1171V79.3619C43.1171 77.1123 42.1727 76.0057 40.2201 75.4463C35.5747 74.0479 32.448 75.2518 31.0442 78.2796L21.7278 98.2466L12.7178 78.2796C11.6968 76.0057 9.65488 74.7654 6.74513 74.8748ZM86.3934 74.887C83.8154 74.887 75.7881 75.1788 75.7881 81.1129V84.9555C75.7881 87.6794 78.3022 89.9047 83.7516 90.4519C84.3642 90.4884 84.9768 90.537 85.5894 90.537C85.5894 90.537 91.9449 90.4154 92.1236 90.4519C95.799 90.4519 95.3907 93.1758 95.3907 93.5649V96.6779C95.3907 97.1035 95.2886 99.7909 92.0853 99.7909H75.7881V102.904H92.1491C94.2931 102.904 96.3733 102.478 98.0324 101.737C100.789 100.533 101.925 98.9032 101.925 96.763V92.3124C101.925 87.5335 95.6969 87.3389 92.1236 87.3389H85.5894C83.0242 87.3389 82.6286 85.8554 82.3223 84.2259V81.1129C82.6286 79.8726 83.2029 78.1945 85.4745 78H101.925V74.887H86.3934ZM111.662 74.887C106.838 75.5193 105.141 77.8054 105.141 81.1129V96.6779C105.141 99.7058 106.915 101.53 110.565 102.478C111.79 102.807 112.9 102.94 113.947 102.94L121.221 102.904H125.496L129.134 106.017H136.485L131.431 101.676C133.805 100.739 134.545 99.3045 134.545 96.6171V81.1129C134.545 77.8054 132.286 75.5193 127.462 74.887H111.662ZM137.863 74.887V96.5441C137.863 100.302 140.096 102.417 146.005 102.843C146.554 102.867 147.115 102.904 147.664 102.904H164V99.7909H148.902C145.533 99.7909 144.397 98.4411 144.397 96.5198V74.887H137.863ZM115.555 78H123.965C126.186 78 127.679 79.7024 128.011 81.1129C128.011 81.1129 128.062 95.6078 128.062 96.6779C128.062 97.748 127.436 98.2344 127.436 98.2344L125.662 96.6779H118.26L121.898 99.7909H115.555C113.283 99.7909 112.007 98.1858 111.675 96.6779V81.4291C111.675 79.7753 113.002 78 115.555 78ZM46.3842 84.2259C46.5118 84.3475 46.3842 97.4926 46.3842 97.748C46.4352 100.472 50.0597 102.855 55.7388 102.904H65.9868V103.111C65.9868 103.694 66.4335 105.64 62.7197 106.017C62.6814 106.017 46.4225 106.017 46.3842 106.017V109.13H63.4216C66.3058 109.045 72.5593 108.425 72.521 103.658C72.521 103.573 72.5465 84.2259 72.521 84.2259H65.9868V99.7909C65.8847 99.7909 57.8956 99.8152 56.2876 99.7909C53.1353 99.7422 52.8673 98.0277 52.9184 97.371V84.2259H46.3842Z" fill="black"/>
</g>
<defs>
<clipPath id="clip0">
<rect width="163.355" height="155.65" fill="white" transform="translate(0.645264 0.175171)"/>
</clipPath>
</defs>
</svg>
