<svg width="164" height="156" viewBox="0 0 164 156" fill="none" xmlns="http://www.w3.org/2000/svg">
<g clip-path="url(#clip0)">
<path d="M58.549 62.3574L41.8494 71.1613C41.2232 71.4889 40.8386 72.0985 40.8386 72.7567V90.3743C40.8386 91.0326 41.2232 91.639 41.8494 91.9697L58.5524 100.78C59.1752 101.108 59.9477 101.108 60.5705 100.78L77.2702 91.9697C77.8895 91.639 78.2741 91.0326 78.2741 90.3743V72.7567C78.2741 72.0985 77.8895 71.4921 77.2633 71.1613L60.5671 62.3574C60.254 62.192 59.9035 62.111 59.5564 62.111C59.2058 62.111 58.8587 62.192 58.5456 62.3574H58.549ZM144.47 78.2175L141.686 79.6832C141.581 79.7383 141.52 79.8388 141.52 79.9491V82.8869C141.52 82.9972 141.584 83.0977 141.686 83.1528L144.47 84.6218C144.576 84.6769 144.702 84.6769 144.807 84.6218L147.591 83.1528C147.693 83.0977 147.758 82.9972 147.758 82.8869V79.9491C147.758 79.8388 147.693 79.7383 147.588 79.6832L144.804 78.2175C144.753 78.1883 144.695 78.1753 144.637 78.1753C144.579 78.1753 144.521 78.1883 144.47 78.2175Z" fill="#388E3C"/>
<path d="M121.669 43.6859L113.538 39.3634C113.283 39.2272 112.97 39.2304 112.718 39.3731C112.466 39.5158 112.31 39.772 112.31 40.0508L112.306 66.161L104.809 62.2082C104.496 62.0428 104.145 61.9617 103.798 61.9617C103.451 61.9617 103.101 62.0428 102.788 62.2082H102.791L86.0913 71.0121C85.4651 71.3396 85.0806 71.9493 85.0806 72.6043V90.2219C85.0806 90.8801 85.4651 91.4865 86.0913 91.8173L102.794 100.628C103.417 100.955 104.19 100.955 104.812 100.628L121.512 91.8173C122.132 91.4898 122.516 90.8801 122.516 90.2219V45.0608C122.516 44.4901 122.189 43.9648 121.669 43.6859ZM111.85 86.1458L104.261 90.1505C103.979 90.2997 103.628 90.2997 103.346 90.1505L95.7531 86.1458C95.4638 85.9966 95.2903 85.7177 95.2903 85.4194V77.41C95.2903 77.1116 95.4638 76.836 95.7497 76.6836L103.342 72.6821H103.339C103.482 72.6075 103.638 72.5718 103.798 72.5718C103.958 72.5718 104.115 72.6108 104.258 72.6821L111.847 76.6836C112.133 76.836 112.306 77.1149 112.306 77.4132V85.4227C112.306 85.7178 112.133 85.9966 111.85 86.1458Z" fill="#37474F"/>
<path d="M58.549 62.3574L40.8386 90.3743C40.8386 91.0326 41.2232 91.639 41.8494 91.9697L58.5524 100.78C59.1752 101.108 59.9477 101.108 60.5705 100.78L78.2741 72.7567C78.2741 72.0985 77.8895 71.4921 77.2633 71.1613L60.5671 62.3574C60.254 62.192 59.9035 62.111 59.5564 62.111C59.2058 62.111 58.8587 62.192 58.5456 62.3574" fill="#2E7D32"/>
<path d="M58.549 62.3574L41.8494 71.1613C41.2232 71.4889 40.8386 72.0985 40.8386 72.7567L58.549 100.78C59.1718 101.108 59.9443 101.108 60.5671 100.78L77.2668 91.9697C77.8895 91.639 78.2741 91.0326 78.2741 90.3743L60.5671 62.3574C60.254 62.192 59.9035 62.111 59.5564 62.111C59.2058 62.111 58.8587 62.192 58.5456 62.3574" fill="#4CAF50"/>
<path d="M162.344 71.0121L145.648 62.2082C145.335 62.0428 144.984 61.9617 144.637 61.9617C144.29 61.9617 143.939 62.0428 143.626 62.2082H143.63L126.93 71.0121C126.307 71.3396 125.919 71.9622 125.919 72.6432V90.1894C125.919 90.8672 126.307 91.493 126.93 91.8205L143.633 100.631C144.259 100.962 145.025 100.962 145.651 100.631L153.353 96.5678C154.057 96.1949 154.054 95.2318 153.346 94.8622L136.588 86.149C136.306 85.9966 136.129 85.7145 136.129 85.4097V77.4132C136.129 77.1149 136.299 76.8392 136.571 76.6966L144.178 72.6886H144.174C144.317 72.614 144.474 72.5783 144.634 72.5783C144.794 72.5783 144.95 72.6172 145.093 72.6886L152.699 76.6998C152.972 76.8425 153.142 77.1181 153.142 77.4164V83.9408C153.142 84.2196 153.298 84.479 153.554 84.6185C153.809 84.7547 154.122 84.7547 154.377 84.6152L162.538 80.0982C163.042 79.8193 163.355 79.3037 163.355 78.7459V72.6497C163.355 71.9655 162.967 71.3396 162.344 71.0121ZM36.4247 71.0121L19.7285 62.2082C19.4154 62.0428 19.0649 61.9617 18.7177 61.9617C18.3706 61.9617 18.0201 62.0428 17.707 62.2082H17.7104L1.01076 71.0121C0.387968 71.3396 0 71.9622 0 72.6432V96.8499C0 97.1288 0.156548 97.3882 0.41179 97.5277C0.667032 97.6639 0.980129 97.6639 1.23537 97.5244L9.39631 93.0073C9.89998 92.7285 10.2097 92.2129 10.2097 91.6551V77.41C10.2097 77.1116 10.3798 76.836 10.6521 76.6933L18.2583 72.6853C18.4012 72.6108 18.5578 72.5751 18.7177 72.5751C18.8777 72.5751 19.0342 72.614 19.1772 72.6853L26.7834 76.6966C27.0556 76.8392 27.2258 77.1149 27.2258 77.4132V91.6584C27.2258 92.2161 27.5355 92.7317 28.0426 93.0106L36.2035 97.5277C36.4588 97.6671 36.7719 97.6671 37.0271 97.5309C37.2789 97.3882 37.4355 97.1288 37.4355 96.8499V72.6464C37.4355 71.9655 37.0475 71.3396 36.4247 71.0121Z" fill="#37474F"/>
</g>
<defs>
<clipPath id="clip0">
<rect width="163.355" height="155.65" fill="white" transform="translate(0 0.350464)"/>
</clipPath>
</defs>
</svg>
