<svg width="165" height="156" viewBox="0 0 165 156" fill="none" xmlns="http://www.w3.org/2000/svg">
<g clip-path="url(#clip0)">
<path d="M82.6696 119.656C38.1963 119.656 2.01318 100.89 2.01318 77.8248C2.01318 54.7595 38.1963 35.994 82.6696 35.994C127.143 35.994 163.326 54.7595 163.326 77.8248C163.326 100.89 127.143 119.656 82.6696 119.656Z" fill="#DCD5F2"/>
<path d="M82.6696 36.9668C126.581 36.9668 162.305 55.2964 162.305 77.8248C162.305 100.353 126.581 118.683 82.6696 118.683C38.7578 118.683 3.03412 100.353 3.03412 77.8248C3.03412 55.2964 38.7578 36.9668 82.6696 36.9668ZM82.6696 35.0211C37.5612 35.0211 0.992188 54.1855 0.992188 77.8248C0.992188 101.464 37.5612 120.628 82.6696 120.628C127.778 120.628 164.347 101.464 164.347 77.8248C164.347 54.1855 127.778 35.0211 82.6696 35.0211Z" fill="#8B75A1"/>
<path d="M52.2692 66.1511C55.7915 66.1511 58.832 67.3612 60.6085 69.4703C62.1379 71.2875 62.6116 73.6942 61.9725 76.4298C60.2552 83.8056 56.9309 85.6073 45.0367 85.6073H36.5831L40.1565 66.1511H52.2692ZM52.2692 62.2598H36.726L29.5792 101.172H33.6631L35.8194 89.4985H45.0387C57.0106 89.4985 63.5244 87.7377 65.9604 77.2722C68.0534 68.2835 61.0985 62.2598 52.2692 62.2598ZM125.779 66.1511C129.301 66.1511 132.342 67.3612 134.118 69.4703C135.648 71.2875 136.121 73.6942 135.482 76.4298C133.765 83.8056 130.441 85.6073 118.546 85.6073H110.093L113.666 66.1511H125.779ZM125.779 62.2598H110.236L103.089 101.172H107.173L109.329 89.4985H118.548C130.52 89.4985 137.034 87.7377 139.47 77.2722C141.563 68.2835 134.608 62.2598 125.779 62.2598Z" fill="#36404D"/>
<path d="M101.194 64.6179C99.3992 62.9369 96.2362 62.2598 91.5193 62.2598H80.2111L82.6696 50.5861H78.3815L70.418 89.4985H74.4814L79.3576 66.151H80.2131H91.5214C96.2954 66.151 97.8391 66.9293 98.3312 67.3904C99.0316 68.048 99.197 69.7757 98.7743 71.9879L95.1662 89.4985H99.4665L102.787 72.7078C103.495 68.9955 102.958 66.2717 101.194 64.6179Z" fill="#36404D"/>
</g>
<defs>
<clipPath id="clip0">
<rect width="163.355" height="155.65" fill="white" transform="translate(0.992188)"/>
</clipPath>
</defs>
</svg>
