<svg width="164" height="156" viewBox="0 0 164 156" fill="none" xmlns="http://www.w3.org/2000/svg">
<g clip-path="url(#clip0)">
<path d="M95.3435 77.8248C95.3435 84.8154 89.4076 90.4713 82.0709 90.4713C74.7342 90.4713 68.7983 84.8154 68.7983 77.8248C68.7983 70.8342 74.7342 65.1783 82.0709 65.1783C89.4076 65.1783 95.3435 70.8342 95.3435 77.8248Z" fill="#8BB7F0"/>
<path d="M82.0709 91.4441C74.1911 91.4441 67.7773 85.3349 67.7773 77.8248C67.7773 70.3147 74.1911 64.2054 82.0709 64.2054C89.9507 64.2054 96.3644 70.3147 96.3644 77.8248C96.3644 85.3349 89.9507 91.4441 82.0709 91.4441ZM82.0709 66.1511C75.3141 66.1511 69.8193 71.3867 69.8193 77.8248C69.8193 84.2628 75.3141 89.4985 82.0709 89.4985C88.8276 89.4985 94.3225 84.2628 94.3225 77.8248C94.3225 71.3867 88.8276 66.1511 82.0709 66.1511Z" fill="#4E7AB5"/>
<path d="M50.3678 146.9C46.874 146.9 43.6927 146.137 40.9095 144.635C36.2539 142.12 33.0358 137.785 31.341 131.755C29.3706 124.738 29.6054 115.416 32.019 104.754C12.5552 98.3745 1.41443 88.586 1.41443 77.8248C1.41443 67.0617 12.5532 57.2752 32.0169 50.8975C29.6034 40.2335 29.3665 30.9121 31.337 23.8942C33.0318 17.8628 36.2499 13.528 40.9034 11.0142C43.6845 9.51219 46.8679 8.74951 50.3617 8.74951C59.3217 8.74951 70.5585 14.0611 82.075 23.7269C93.5915 14.0708 104.824 8.76313 113.774 8.76313C117.268 8.76313 120.449 9.52581 123.232 11.0278C127.882 13.5396 131.102 17.8667 132.797 23.8903C134.769 30.9062 134.532 40.2296 132.117 50.8955C151.585 57.2733 162.727 67.0617 162.727 77.8248C162.727 88.588 151.585 98.3764 132.117 104.756C134.53 115.42 134.767 124.741 132.795 131.757C131.1 137.783 127.884 142.11 123.238 144.622C120.453 146.124 117.27 146.887 113.778 146.887C104.822 146.887 93.5854 141.579 82.0729 131.927C70.5564 141.591 59.3217 146.9 50.3678 146.9ZM39.8784 107.021C37.8548 116.198 37.6282 124.039 39.2331 129.744C40.3398 133.685 42.2572 136.419 44.9383 137.867C46.4759 138.697 48.3034 139.12 50.3678 139.12C57.2981 139.12 66.4215 134.68 76.1391 126.596C71.2691 121.922 66.5154 116.632 61.9925 110.854C54.1699 110.044 46.7372 108.756 39.8784 107.021ZM88.0048 126.592C97.7203 134.668 106.846 139.104 113.776 139.106C115.84 139.106 117.668 138.684 119.21 137.853C121.883 136.409 123.796 133.682 124.9 129.746C126.505 124.037 126.281 116.198 124.257 107.023C117.392 108.758 109.958 110.046 102.137 110.856C97.6161 116.634 92.8686 121.922 88.0048 126.592ZM73.017 111.665C75.9818 115.12 79.0162 118.344 82.0709 121.276C85.1175 118.346 88.1538 115.122 91.1167 111.665C88.0721 111.803 85.0399 111.873 82.0709 111.873C79.0999 111.873 76.0656 111.803 73.017 111.665ZM66.448 103.466C71.5427 103.881 76.7966 104.091 82.0709 104.091C87.3493 104.091 92.5971 103.881 97.6835 103.468C100.718 99.4134 103.611 95.1642 106.288 90.8313C108.877 86.6385 111.313 82.2628 113.531 77.8229C111.32 73.3947 108.886 69.0209 106.29 64.8184C103.619 60.4952 100.726 56.246 97.6835 52.1816C92.6012 51.7691 87.3534 51.559 82.0709 51.559C76.7864 51.559 71.5365 51.7691 66.4562 52.1835C63.4137 56.2421 60.5162 60.4913 57.8413 64.8203C55.248 69.0209 52.814 73.3947 50.6006 77.8287C52.8099 82.2531 55.2439 86.6268 57.8392 90.8332C60.5019 95.1428 63.3953 99.3901 66.448 103.466ZM117.786 87.1229C116.345 89.7417 114.85 92.31 113.325 94.777C111.787 97.2713 110.152 99.7734 108.453 102.24C113.3 101.528 117.937 100.616 122.279 99.5165C121.074 95.53 119.565 91.3722 117.786 87.1229ZM41.8529 99.5146C46.1961 100.612 50.8313 101.526 55.6727 102.238C53.9636 99.7559 52.3281 97.2518 50.8007 94.777C49.2794 92.3119 47.7827 89.7476 46.3431 87.1288C44.5728 91.3586 43.0658 95.5125 41.8529 99.5146ZM122.534 77.8248C125.654 84.4224 128.196 90.9441 130.105 97.2363C145.22 92.1699 154.56 84.7785 154.56 77.8248C154.56 70.8712 145.22 63.4798 130.105 58.4134C128.2 64.7055 125.656 71.2272 122.534 77.8248ZM34.0282 58.4173C18.9199 63.4817 9.58217 70.8731 9.58217 77.8248C9.58217 84.7785 18.9199 92.1699 34.0323 97.2343C35.9395 90.9403 38.4817 84.4185 41.5977 77.8287C38.4796 71.237 35.9374 64.7152 34.0282 58.4173ZM41.8509 56.1351C43.0638 60.1314 44.5707 64.2872 46.3431 68.5248C47.7807 65.9138 49.2754 63.3475 50.8027 60.8746C52.3383 58.3862 53.9739 55.8841 55.6789 53.4112C50.8313 54.1214 46.1961 55.0358 41.8509 56.1351ZM108.457 53.4093C110.166 55.8938 111.801 58.3959 113.329 60.8746C114.852 63.3397 116.349 65.906 117.79 68.5248C119.565 64.2892 121.072 60.1333 122.285 56.1331C117.935 55.0338 113.3 54.1194 108.457 53.4093ZM50.3617 16.532C48.2973 16.532 46.4718 16.9522 44.9362 17.785C42.2572 19.2325 40.3378 21.9661 39.229 25.9079C37.6261 31.6183 37.8507 39.4572 39.8763 48.6308C46.7372 46.8953 54.174 45.6054 61.9987 44.796C66.5256 39.0156 71.2793 33.7293 76.1432 29.0598C66.4235 20.9719 57.294 16.532 50.3617 16.532ZM102.139 44.7941C109.96 45.6034 117.394 46.8914 124.259 48.6269C126.285 39.4514 126.512 31.6105 124.905 25.9021C123.798 21.968 121.883 19.2403 119.208 17.7966C117.668 16.9659 115.84 16.5437 113.774 16.5437C106.846 16.5437 97.7244 20.9816 88.0068 29.0598C92.8666 33.7274 97.6161 39.0156 102.139 44.7941ZM82.0709 43.7765C85.0399 43.7765 88.0721 43.8465 91.1187 43.9847C88.1579 40.5331 85.1236 37.3112 82.075 34.3772C79.0182 37.3151 75.9859 40.537 73.0251 43.9847C76.0696 43.8465 79.1019 43.7765 82.0709 43.7765Z" fill="#8BB7F0"/>
<path d="M50.3616 9.72231C59.5381 9.72231 70.7728 15.3841 82.077 25.0285C93.3791 15.3918 104.608 9.73593 113.776 9.73593C117.09 9.73593 120.104 10.4558 122.732 11.8742C127.134 14.2517 130.189 18.3784 131.81 24.1432C134.01 31.7642 133.548 41.148 130.924 51.5376C149.755 57.532 161.706 66.9897 161.706 77.8248C161.706 88.66 149.755 98.1176 130.922 104.114C133.66 115.346 134.12 124.983 131.808 131.506C130.187 137.269 127.134 141.398 122.736 143.775C120.104 145.196 117.713 145.922 114.401 145.922C114.399 145.922 113.551 145.922 113.549 145.922C104.377 145.922 93.3709 140.26 82.0708 130.627C70.7687 140.269 59.5381 145.927 50.3657 145.927C47.0517 145.927 44.0378 145.207 41.4098 143.789C37.0033 141.406 33.9465 137.273 32.3273 131.504C29.8974 124.273 30.3874 114.766 33.2135 104.112C14.3848 98.1157 2.43537 88.66 2.43537 77.8248C2.43537 66.9916 14.3848 57.534 33.2114 51.5376C31.8086 45.5859 30.9122 40.0603 30.8816 35.0212C30.8571 31.0405 31.4268 27.3379 32.3252 24.1452C33.9465 18.3745 37.0013 14.242 41.4077 11.8605C44.0337 10.4402 47.0476 9.72231 50.3616 9.72231ZM39.1044 49.8351C46.2043 47.9771 54.0882 46.5723 62.552 45.7163C67.4159 39.4708 72.5064 33.8558 77.6337 29.0151C67.6854 20.5594 57.9985 15.5572 50.3616 15.5572C48.1175 15.5572 46.1246 16.0203 44.4319 16.9367C41.5058 18.5185 39.425 21.4505 38.2427 25.655C36.4908 31.8849 36.8889 40.3055 39.1044 49.8351ZM125.031 49.8332C127.247 40.3036 127.645 31.881 125.893 25.6511C124.713 21.4544 122.632 18.5282 119.712 16.9503C118.017 16.0339 116.018 15.5708 113.776 15.5708C106.145 15.5708 96.4645 20.5672 86.5182 29.0151C91.6434 33.8558 96.7279 39.4708 101.588 45.7143C110.047 46.5704 117.931 47.9751 125.031 49.8332ZM70.7932 45.0723C74.4728 44.8641 78.1626 44.6831 81.9994 44.6831C85.8362 44.6831 89.6668 44.866 93.3464 45.0723C89.6546 40.6382 85.8648 36.5874 82.0729 33.0016C78.281 36.5874 74.4891 40.6382 70.7932 45.0723ZM82.0708 105.063C87.7086 105.063 93.1055 104.828 98.2389 104.398C101.341 100.279 104.34 95.9055 107.166 91.3255C109.929 86.8525 112.428 82.325 114.66 77.8248C112.428 73.3246 109.929 68.7991 107.168 64.3281C104.34 59.7461 101.343 55.3743 98.2389 51.2554C93.1075 50.8216 87.7107 50.5862 82.0708 50.5862C76.431 50.5862 71.0322 50.8216 65.8987 51.2535C62.7929 55.3724 59.7913 59.7461 56.9632 64.3261C54.2025 68.7991 51.7032 73.3266 49.4714 77.8268C51.7032 82.327 54.2005 86.8525 56.9612 91.3235C59.7892 95.9035 62.7889 100.277 65.8926 104.396C71.0281 104.828 76.429 105.063 82.0708 105.063ZM117.899 70.8459C120.196 65.5752 122.097 60.3999 123.547 55.4502C118.334 54.0844 112.575 52.9559 106.337 52.129C108.436 55.1 110.48 58.1799 112.447 61.3668C114.395 64.5168 116.206 67.6843 117.899 70.8459ZM46.2328 70.8478C47.9236 67.6862 49.7368 64.5187 51.6807 61.3668C53.6492 58.1799 55.6952 55.1019 57.7963 52.131C51.5582 52.9559 45.7999 54.0863 40.5869 55.4521C42.0367 60.4018 43.9377 65.5752 46.2328 70.8478ZM129.419 98.4912C145.91 93.168 155.581 85.3466 155.581 77.8248C155.581 70.3031 145.91 62.4817 129.419 57.1585C127.473 63.7833 124.786 70.7447 121.415 77.8229C124.786 84.903 127.473 91.8644 129.419 98.4912ZM34.7184 98.4893C36.6623 91.8664 39.3474 84.9049 42.7187 77.8287C39.3474 70.7506 36.6602 63.7872 34.7163 57.1623C18.2277 62.4856 8.56117 70.305 8.56117 77.8248C8.56117 85.3466 18.2297 93.166 34.7184 98.4893ZM106.337 103.521C112.575 102.696 118.334 101.567 123.547 100.199C122.095 95.2498 120.194 90.0744 117.899 84.8018C116.206 87.9634 114.393 91.1309 112.447 94.2828C110.48 97.4697 108.436 100.55 106.337 103.521ZM57.7902 103.519C55.6911 100.548 53.6471 97.4697 51.6787 94.2848C49.7348 91.1348 47.9236 87.9693 46.2328 84.8096C43.9377 90.0783 42.0387 95.2517 40.5889 100.199C45.7999 101.563 51.5562 102.692 57.7902 103.519ZM50.3678 140.09C58.0026 140.09 67.6854 135.09 77.6317 126.638C72.5003 121.796 67.4118 116.179 62.5459 109.931C54.0861 109.077 46.2063 107.673 39.1085 105.815C36.8951 115.344 36.4969 123.765 38.2468 129.995C39.4271 134.197 41.5098 137.129 44.4339 138.711C46.1246 139.627 48.1237 140.09 50.3678 140.09ZM113.776 140.079C116.02 140.079 118.015 139.616 119.712 138.699C122.632 137.121 124.709 134.195 125.887 129.997C127.639 123.765 127.241 115.344 125.027 105.816C117.927 107.675 110.045 109.079 101.584 109.933C96.7238 116.179 91.6373 121.794 86.5121 126.637C96.4583 135.081 106.141 140.077 113.776 140.079ZM82.0708 122.652C85.8627 119.064 89.6526 115.011 93.3464 110.577C89.6689 110.786 86.0792 111.225 82.2403 111.225C78.3995 111.225 74.4667 110.786 70.7871 110.577C74.483 115.013 78.2769 119.066 82.0708 122.652ZM49.6367 7.92261C45.9633 7.92261 43.3374 8.58023 40.4011 10.1659C35.5025 12.8139 32.121 17.3472 30.3527 23.6413C28.3925 30.6202 28.5619 39.7938 30.8346 50.2593C11.4587 56.7907 0.393433 66.7834 0.393433 77.8248C0.393433 88.8682 11.4607 98.8589 30.8366 105.39C28.564 115.856 28.3945 125.029 30.3568 132.008C32.1231 138.299 35.5025 142.832 40.4052 145.484C43.3455 147.071 46.8781 147.747 50.5495 147.747C59.7117 147.747 70.4645 142.814 82.0729 133.221C93.6793 142.805 104.614 147.859 113.774 147.861C117.447 147.861 120.8 147.058 123.741 145.47C128.635 142.826 132.012 138.299 133.779 132.012C135.741 125.031 135.572 115.858 133.299 105.394C152.679 98.8609 163.748 88.8682 163.748 77.8248C163.748 66.7815 152.681 56.7888 133.301 50.2573C135.576 39.7899 135.743 30.6163 133.781 23.6374C132.012 17.3511 128.633 12.8236 123.737 10.1795C120.798 8.59385 117.445 7.78836 113.774 7.78836C104.616 7.78836 93.6833 12.845 82.0749 22.433C70.4645 12.8372 59.4789 7.91677 50.3147 7.91677L49.6367 7.92261ZM40.6604 47.4284C39.717 42.9068 39.084 38.6692 39.0493 34.9531C39.0187 31.6066 39.5006 28.694 40.2132 26.157C41.2485 22.4758 43.0066 19.9426 45.4385 18.6274C46.8189 17.8803 48.5014 17.3744 50.3861 17.3744C56.8815 17.3744 65.4291 21.612 74.6505 29.1143C70.1153 33.5367 65.6823 38.4902 61.4473 43.8718C54.127 44.6501 47.1476 45.8427 40.6604 47.4284ZM89.4994 29.1182C98.7188 21.6217 107.287 17.5165 113.774 17.5165C115.661 17.5165 117.321 17.8959 118.703 18.643C121.131 19.9543 122.887 22.4817 123.92 26.155C125.705 31.6378 125.474 38.9261 123.475 47.4265C116.988 45.8427 110.011 44.6481 102.692 43.8738C98.4594 38.4941 94.0305 33.5406 89.4994 29.1182ZM75.2773 42.9204C77.5153 40.3911 79.788 37.998 82.0729 35.7644C84.3578 37.998 86.6284 40.3911 88.8644 42.9204C86.5794 42.8426 84.3068 42.8037 82.0708 42.8037C79.8349 42.8037 77.5643 42.8426 75.2773 42.9204ZM67.0116 53.1155C71.9224 52.7283 76.9823 52.452 82.0708 52.452C87.1573 52.452 92.2172 52.7283 97.126 53.1155C100.05 57.0437 102.835 61.1431 105.408 65.3125C107.903 69.3555 110.254 73.56 112.398 77.8229C110.252 82.0877 107.901 86.2941 105.406 90.3371C102.831 94.5085 100.048 98.606 97.124 102.534C92.2172 102.921 87.1573 103.441 82.0708 103.441C76.9803 103.441 71.9184 102.919 67.0055 102.532C64.0794 98.606 61.2942 94.5066 58.7193 90.3352C56.224 86.2941 53.8758 82.0896 51.7318 77.8248C53.8758 73.56 56.2261 69.3536 58.7213 65.3106C61.2982 61.1411 64.0855 57.0417 67.0116 53.1155ZM117.645 66.1978C116.524 64.2172 115.375 62.2715 114.209 60.3804C113.045 58.4951 111.826 56.602 110.564 54.7206C114.186 55.3082 117.68 56.0105 121.006 56.8219C120.053 59.8687 118.928 63.005 117.645 66.1978ZM43.1271 56.8219C46.4534 56.0105 49.9471 55.3082 53.5695 54.7206C52.3056 56.602 51.0865 58.4951 49.9226 60.3785C48.7567 62.2696 47.6071 64.2152 46.486 66.1959C45.2037 63.007 44.0806 59.8706 43.1271 56.8219ZM123.655 77.8229C126.544 71.6708 128.937 65.581 130.781 59.678C144.877 64.579 153.539 71.4451 153.539 77.8248C153.539 84.2045 144.877 91.0706 130.781 95.9716C128.935 90.0667 126.544 83.9749 123.655 77.8229ZM33.3544 95.9697C19.263 91.0687 10.6031 84.2026 10.6031 77.8248C10.6031 71.4471 19.263 64.581 33.3523 59.68C35.1962 65.5849 37.5873 71.6747 40.4766 77.8268C37.5893 83.9769 35.1982 90.0667 33.3544 95.9697ZM110.562 100.931C111.824 99.0476 113.045 97.1546 114.207 95.2712C115.375 93.3801 116.524 91.4325 117.645 89.4519C118.928 92.6446 120.051 95.7829 121.006 98.8317C117.678 99.6391 114.184 100.343 110.562 100.931ZM43.1291 98.8278C44.0827 95.7809 45.2057 92.6466 46.486 89.4577C47.605 91.4364 48.7546 93.382 49.9206 95.2712C51.0824 97.1546 52.3015 99.0457 53.5654 100.929C49.9451 100.34 46.4534 99.6372 43.1291 98.8278ZM50.3678 138.145C48.481 138.145 46.823 137.765 45.4406 137.018C43.0107 135.703 41.2526 133.172 40.2193 129.491C38.5225 123.955 38.7144 116.665 40.6645 108.219C47.1497 109.803 54.1249 110.998 61.4412 111.772C65.6782 117.154 70.1112 122.109 74.6484 126.535C65.4291 134.04 56.8591 138.147 50.3678 138.145ZM102.69 111.776C110.009 111 116.986 109.807 123.473 108.223C125.729 117.445 125.907 124.796 123.916 129.493C122.885 133.168 121.131 135.695 118.705 137.005C117.321 137.752 115.663 138.131 113.778 138.131V140.077L113.776 138.131C107.283 138.131 98.7126 134.026 89.4953 126.533C94.0284 122.111 98.4574 117.157 102.69 111.776ZM82.0708 119.889C79.7839 117.656 77.5092 115.26 75.2712 112.729C77.5582 112.807 79.8329 112.846 82.0708 112.846C84.3068 112.846 86.5794 112.807 88.8644 112.729C86.6284 115.26 84.3558 117.656 82.0708 119.889Z" fill="#4E7AB5"/>
</g>
<defs>
<clipPath id="clip0">
<rect width="163.355" height="155.65" fill="white" transform="translate(0.393433)"/>
</clipPath>
</defs>
</svg>
