<svg width="164" height="156" viewBox="0 0 164 156" fill="none" xmlns="http://www.w3.org/2000/svg">
<path d="M78.6676 13.3213C56.1484 13.3213 37.8289 36.8957 37.8289 65.8692C37.8289 81.5444 43.2128 95.6015 51.7072 105.223C51.5439 105.913 51.4418 106.623 51.4418 107.36C51.4418 112.733 56.0123 117.088 61.6514 117.088C67.2906 117.088 71.8611 112.733 71.8611 107.36C71.8611 101.986 67.2906 97.6315 61.6514 97.6315C60.5794 97.6315 59.5687 97.8325 58.5988 98.1243C52.1428 90.2738 48.0385 78.7427 48.0385 65.8692C48.0385 42.2591 61.7774 23.0494 78.6676 23.0494C91.7258 23.0494 102.868 34.5512 107.268 50.6707C111.087 51.7927 114.881 53.2065 118.601 54.9121C114.67 31.1821 98.2668 13.3213 78.6676 13.3213Z" fill="#7E57C2"/>
<path d="M121.232 65.4768C107.799 57.7203 92.7331 54.3155 79.7737 55.8817C77.9019 53.6734 75.0704 52.2336 71.8612 52.2336C66.222 52.2336 61.6515 56.5886 61.6515 61.9617C61.6515 67.3349 66.222 71.6898 71.8612 71.6898C76.1901 71.6898 79.869 69.1119 81.3528 65.4898C91.964 64.2608 104.536 67.2117 115.94 73.8008C137.731 86.3858 148.849 108.073 140.722 122.153C137.908 127.03 132.942 130.493 126.367 132.173C118.587 134.154 109.327 133.45 100.07 130.461C97.2152 132.964 94.1183 135.318 90.7967 137.491C99.4817 141.113 108.48 143.016 116.896 143.016C121.116 143.016 125.193 142.54 129.008 141.567C138.336 139.19 145.483 134.096 149.669 126.838C160.399 108.255 147.641 80.7272 121.232 65.4768Z" fill="#7E57C2"/>
<path d="M119.506 94.3628C119.506 89.0058 114.936 84.6606 109.297 84.6606C103.658 84.6606 99.087 89.0058 99.087 94.3628C99.087 96.5321 99.8629 98.5167 101.129 100.132C96.7762 109.218 88.3873 118.184 77.0954 124.705C63.9419 132.306 49.24 135.088 37.7711 132.169C31.196 130.49 26.2307 127.026 23.4163 122.149C17.624 112.117 21.6432 98.2313 32.2987 86.5187C31.1995 82.809 30.3861 78.9308 29.896 74.926C12.6417 90.4813 5.70249 111.643 14.4726 126.838C18.6586 134.096 25.8053 139.19 35.1336 141.567C38.9486 142.54 43.0223 143.016 47.2457 143.016C58.6329 143.016 71.0921 139.553 82.3874 133.029C95.4421 125.489 105.131 114.944 110.324 103.968C115.474 103.472 119.506 99.3857 119.506 94.3628Z" fill="#7E57C2"/>
</svg>
