<svg width="165" height="156" viewBox="0 0 165 156" fill="none" xmlns="http://www.w3.org/2000/svg">
<path d="M143.928 19.8066H21.4115V136.544H143.928V19.8066Z" fill="#1976D2"/>
<path d="M94.5469 71.6898H49.4099V82.274H65.5991V130.058H78.4258V82.274H94.5469V71.6898Z" fill="white"/>
<path d="M134.378 84.933C134.378 84.933 128.297 81.0677 121.422 81.0677C114.548 81.0677 112.073 84.1807 112.073 87.5077C112.073 96.0944 137.193 95.2351 137.193 112.515C137.193 139.135 98.8927 127.328 98.8927 127.328V114.558C98.8927 114.558 106.216 119.818 115 119.818C123.784 119.818 123.45 114.344 123.45 113.592C123.45 105.651 98.5558 105.651 98.5558 88.046C98.5558 64.1117 134.827 73.5544 134.827 73.5544L134.378 84.933Z" fill="white"/>
</svg>
