<svg width="167" height="135" viewBox="0 0 167 135" fill="none" xmlns="http://www.w3.org/2000/svg">
<g clip-path="url(#clip0)">
<path opacity="0.18" d="M10.4303 63.1024C5.11752 69.1617 -0.507749 76.0791 0.0358966 83.9697C0.46886 90.2249 4.79523 95.8521 4.73013 102.11C4.66502 108.369 0.172622 114.235 1.14923 120.453C2.23652 127.511 9.9029 131.875 17.1656 133.551C32.4984 137.089 48.4789 133.24 64.2023 132.059C76.2732 131.154 88.4059 131.844 100.49 132.535L134.44 134.462C138.998 134.723 143.718 134.963 147.979 133.402C151.885 131.975 155.04 129.161 157.745 126.143C163.673 119.564 168.123 110.999 166.733 102.424C164.49 88.602 148.197 79.3746 147.263 65.4279C146.957 60.8639 148.288 55.8337 145.681 52.0003C144.655 50.4925 143.122 49.3701 141.53 48.4157C131.608 42.4776 119.185 42.3346 107.476 42.3781L50.1554 42.5833C43.8303 42.6051 33.182 40.6122 27.6251 43.6839C24.8125 45.2352 10.4303 60.1582 10.4303 63.1024Z" fill="#5D3EC5"/>
<path opacity="0.1" d="M155.092 106.472C155.336 109.099 154.731 111.341 153.712 112.557C152.693 113.772 151.169 114.531 149.594 114.935C148.018 115.339 142.904 116.564 141.276 116.651C142.858 116.182 148.946 114.425 149.74 113.035C150.072 112.396 150.363 111.739 150.612 111.067C151.15 109.777 151.853 103.74 152.891 102.748C154.099 101.604 154.975 105.198 155.092 106.472Z" fill="url(#paint0_linear)"/>
<path opacity="0.1" d="M87.146 113.76C72.6166 112.504 58.0251 112.022 43.4395 112.317C39.2987 112.404 34.4417 112.227 32.0653 108.987C34.7184 107.013 38.3254 106.811 41.6849 106.702C74.704 105.577 105.33 104.622 138.35 103.497C136.836 102.449 138.35 99.8907 138.044 98.1279C141.299 97.1766 148.187 98.6533 150.326 100.814C148.324 99.443 144.053 98.9487 142.23 99.6606C140.407 100.373 138.929 101.939 139.922 103.559C140.215 104.038 140.687 104.445 140.765 104.996C140.895 105.913 139.889 106.578 138.994 106.932C131.106 110.041 121.516 107.066 113.895 110.744C113.439 110.93 113.04 111.224 112.736 111.599C111.604 113.244 114.26 114.857 116.291 115.184C123.558 116.359 130.908 117.005 138.278 117.117L113.313 118.224C114.026 119.039 113.664 120.357 112.834 121.063C112.004 121.768 110.861 121.995 109.768 122.182C100.529 123.69 87.4423 123.09 79.701 117.208C82.0546 115.889 84.6654 114.873 87.146 113.76Z" fill="url(#paint1_linear)"/>
<path d="M27.1659 34.7488L23.585 38.6474C22.96 39.3252 22.2829 40.1273 22.4261 41.0226C22.5434 41.5274 22.8048 41.9912 23.1814 42.3626C23.8584 43.1343 24.6312 43.8244 25.4829 44.4176C26.6874 41.2838 27.6184 38.066 27.1659 34.7488Z" fill="#5D3EC5"/>
<path d="M27.2115 34.7332L23.6306 38.6318C23.0055 39.3095 22.3284 40.1147 22.4717 41.007C22.5843 41.51 22.84 41.9737 23.2106 42.347C23.8889 43.1177 24.6628 43.8067 25.5154 44.3989C26.7459 41.2682 27.664 38.0535 27.2115 34.7332Z" fill="url(#paint2_linear)"/>
<path d="M138.47 0H30.6818V103.205H138.47V0Z" fill="#5D3EC5"/>
<path d="M138.47 0H30.6818V103.205H138.47V0Z" fill="url(#paint3_linear)"/>
<path d="M33.0981 27.8061L13.545 119.837L14.215 119.966L33.768 27.9359L33.0981 27.8061Z" fill="#5D3EC5"/>
<path d="M43.5392 28.0272L23.8137 120.291L24.4835 120.421L44.209 28.1578L43.5392 28.0272Z" fill="#5D3EC5"/>
<path d="M42.5051 33.813H32.0554V34.4659H42.5051V33.813Z" fill="#5D3EC5"/>
<path d="M40.858 41.604H30.4083V42.2569H40.858V41.604Z" fill="#5D3EC5"/>
<path d="M39.2076 49.392H28.7579V50.0448H39.2076V49.392Z" fill="#5D3EC5"/>
<path d="M37.5571 57.183H27.1074V57.8359H37.5571V57.183Z" fill="#5D3EC5"/>
<path d="M35.9066 64.974H25.4569V65.6269H35.9066V64.974Z" fill="#5D3EC5"/>
<path d="M34.2562 72.765H23.8065V73.4179H34.2562V72.765Z" fill="#5D3EC5"/>
<path d="M32.6089 80.556H22.1592V81.2089H32.6089V80.556Z" fill="#5D3EC5"/>
<path d="M30.9584 88.347H20.5087V88.9999H30.9584V88.347Z" fill="#5D3EC5"/>
<path d="M29.308 96.1381H18.8583V96.7909H29.308V96.1381Z" fill="#5D3EC5"/>
<path d="M27.6575 103.929H17.2078V104.582H27.6575V103.929Z" fill="#5D3EC5"/>
<path d="M26.0071 111.717H15.5574V112.37H26.0071V111.717Z" fill="#5D3EC5"/>
<path opacity="0.1" d="M45.1908 103.118L44.3379 29.0811L43.625 28.9506L43.6901 34.5871H41.7857C41.7564 33.6171 41.6164 32.6782 41.2583 32.044C40.2524 30.2563 38.9796 32.044 38.615 33.2409C38.4522 33.7632 38.1983 34.3135 37.7067 34.5778H35.786C35.5611 34.5343 35.3319 34.5135 35.1024 34.5156C34.9608 34.5226 34.8202 34.5424 34.6825 34.5747H33.7059L33.631 28.8386L32.9181 28.7112L33.0092 35.8182C32.9604 35.8929 32.9116 35.9706 32.8692 36.0514C32.433 36.8691 32.3223 37.8018 32.2182 38.7158C31.3067 47.8654 31.7885 57.0804 32.2735 66.258C32.3582 67.8467 32.4461 69.4633 33.0157 70.9587C33.1379 71.2816 33.2893 71.5937 33.4682 71.8914L33.8784 103.143L45.1908 103.118ZM44.4779 102.965L34.6044 102.944L34.5165 95.9827L44.3965 96.0044L44.4779 102.965ZM44.39 95.3671L34.5002 95.3453L34.409 88.3844L44.3021 88.4093L44.39 95.3671ZM44.3021 87.7719L34.409 87.7377L34.3179 80.7768L44.2207 80.8017L44.3021 87.7719ZM44.2142 80.1737L34.3081 80.1488L34.217 73.1878H34.868C34.9588 73.2343 35.0523 73.2758 35.148 73.3122C35.4291 73.4043 35.7268 73.4413 36.0233 73.421C36.3197 73.4007 36.6088 73.3235 36.8733 73.1941H44.1393L44.2142 80.1737ZM44.1263 72.5754H37.5895C37.6816 72.4266 37.7414 72.2617 37.7653 72.0904C37.8565 71.4406 37.4788 70.8313 37.2217 70.225C36.6064 68.77 36.6683 67.1658 37.0329 65.6144L44.0482 65.63L44.1263 72.5754ZM44.0384 64.9771H37.2021C37.3193 64.5698 37.456 64.1688 37.6025 63.777C38.3317 61.8557 39.3214 60.009 39.8032 58.0255H43.9603L44.0384 64.9771ZM43.9407 57.3788H39.9334C40.3436 55.0937 40.0213 52.7154 40.1743 50.4179H43.8626L43.9407 57.3788ZM43.8528 49.7805H40.2329C40.2918 49.225 40.393 48.6743 40.5356 48.1328C40.7505 47.3493 41.0695 46.5783 41.203 45.7855C41.3104 44.7994 41.2907 43.8043 41.1444 42.8227H43.7747L43.8528 49.7805ZM43.6868 35.2244L43.7682 42.1854H41.0923C41.0657 41.8502 41.057 41.514 41.0662 41.1781C41.1118 39.978 41.4601 38.8059 41.6066 37.6121C41.7087 36.8207 41.7674 36.0248 41.7824 35.2275L43.6868 35.2244Z" fill="url(#paint4_linear)"/>
<g opacity="0.74">
<path opacity="0.74" d="M63.678 4.29041H42.5963V6.39206H63.678V4.29041Z" fill="#5D3EC5"/>
<path opacity="0.74" d="M55.4648 8.35999H42.5963V10.3373H55.4648V8.35999Z" fill="#5D3EC5"/>
<path opacity="0.54" d="M101.147 8.35999H60.6538V10.3497H101.147V8.35999Z" fill="#5D3EC5"/>
<path opacity="0.74" d="M127.73 8.35999H104.936V10.3497H127.73V8.35999Z" fill="#5D3EC5"/>
<path opacity="0.74" d="M66.9822 12.4297H49.2893V14.5158H66.9822V12.4297Z" fill="#5D3EC5"/>
<path opacity="0.48" d="M60.7742 28.0708H49.2893V30.4181H60.7742V28.0708Z" fill="#5D3EC5"/>
<path opacity="0.74" d="M85.8535 35.2462H81.0031V37.5842H85.8535V35.2462Z" fill="#5D3EC5"/>
<path opacity="0.74" d="M60.7742 31.5714H49.2893V33.9187H60.7742V31.5714Z" fill="#5D3EC5"/>
<path opacity="0.74" d="M60.7742 73.9371H49.2893V76.2844H60.7742V73.9371Z" fill="#5D3EC5"/>
<path opacity="0.74" d="M67.311 54.5497H55.826V56.8969H67.311V54.5497Z" fill="#5D3EC5"/>
<path opacity="0.48" d="M67.311 58.4017H55.826V60.749H67.311V58.4017Z" fill="#5D3EC5"/>
<path opacity="0.74" d="M67.311 65.7544H55.826V68.1017H67.311V65.7544Z" fill="#5D3EC5"/>
<path opacity="0.74" d="M67.311 69.6063H55.826V71.9536H67.311V69.6063Z" fill="#5D3EC5"/>
<path opacity="0.74" d="M81.6119 58.4017H70.127V60.749H81.6119V58.4017Z" fill="#5D3EC5"/>
<path opacity="0.48" d="M81.6119 69.4883H70.127V71.8355H81.6119V69.4883Z" fill="#5D3EC5"/>
<path opacity="0.74" d="M101.789 73.9371H64.5049V76.2844H101.789V73.9371Z" fill="#5D3EC5"/>
<path opacity="0.74" d="M76.0517 16.4993H54.97V18.6009H76.0517V16.4993Z" fill="#5D3EC5"/>
<path opacity="0.52" d="M95.0987 16.4993H77.4286V18.8341H95.0987V16.4993Z" fill="#5D3EC5"/>
<path opacity="0.74" d="M71.2206 20.572H54.9406V22.5493H71.2206V20.572Z" fill="#5D3EC5"/>
<path opacity="0.48" d="M78.7437 35.5105H54.9406V37.3541H78.7437V35.5105Z" fill="#5D3EC5"/>
<path opacity="0.74" d="M134.524 20.572H118.244V22.5493H134.524V20.572Z" fill="#5D3EC5"/>
<path opacity="0.74" d="M106.379 20.572H72.7833V22.7638H106.379V20.572Z" fill="#5D3EC5"/>
<path opacity="0.74" d="M116.975 20.572H109.569V22.8011H116.975V20.572Z" fill="#5D3EC5"/>
<path opacity="0.48" d="M91.5862 24.6416H54.8788V26.6033H91.5862V24.6416Z" fill="#5D3EC5"/>
<path opacity="0.74" d="M79.0889 78.0378H54.8788V80.0866H79.0889V78.0378Z" fill="#5D3EC5"/>
<path opacity="0.74" d="M82.4679 39.9595H61.3862V42.0611H82.4679V39.9595Z" fill="#5D3EC5"/>
<path opacity="0.48" d="M82.4679 50.5796H61.3862V52.6812H82.4679V50.5796Z" fill="#5D3EC5"/>
<path opacity="0.74" d="M74.1896 92.9484H61.3862V94.9816H74.1896V92.9484Z" fill="#5D3EC5"/>
<path opacity="0.74" d="M64.2869 96.8875H55.6146V98.7652H64.2869V96.8875Z" fill="#5D3EC5"/>
<path opacity="0.74" d="M74.3849 81.3923H61.3862V83.494H74.3849V81.3923Z" fill="#5D3EC5"/>
<path opacity="0.74" d="M90.0594 81.3923H77.0608V83.494H90.0594V81.3923Z" fill="#5D3EC5"/>
<path opacity="0.74" d="M80.3455 85.2444H67.3468V87.346H80.3455V85.2444Z" fill="#5D3EC5"/>
<path opacity="0.74" d="M96.0168 85.2444H83.0182V87.346H96.0168V85.2444Z" fill="#5D3EC5"/>
<path opacity="0.74" d="M85.1797 89.1835H67.3468V91.2851H85.1797V89.1835Z" fill="#5D3EC5"/>
<path opacity="0.74" d="M92.7322 89.1835H87.9696V91.2851H92.7322V89.1835Z" fill="#5D3EC5"/>
<path opacity="0.74" d="M71.9303 62.1356H61.3862V64.144H71.9303V62.1356Z" fill="#5D3EC5"/>
<path opacity="0.74" d="M82.4713 46.8457H67.7961V48.7173H82.4713V46.8457Z" fill="#5D3EC5"/>
<path opacity="0.74" d="M101.046 46.8457H86.3711V48.7173H101.046V46.8457Z" fill="#5D3EC5"/>
<path opacity="0.74" d="M101.046 58.1686H86.3711V60.0402H101.046V58.1686Z" fill="#5D3EC5"/>
<path opacity="0.74" d="M118.645 46.8457H103.97V48.7173H118.645V46.8457Z" fill="#5D3EC5"/>
<path opacity="0.74" d="M118.645 89.2705H94.464V91.1421H118.645V89.2705Z" fill="#5D3EC5"/>
<path opacity="0.48" d="M107.401 39.9595H86.3191V42.0611H107.401V39.9595Z" fill="#5D3EC5"/>
<path opacity="0.74" d="M89.314 43.1118H68.2323V45.2135H89.314V43.1118Z" fill="#5D3EC5"/>
<path opacity="0.48" d="M114.244 43.1118H93.1619V45.2135H114.244V43.1118Z" fill="#5D3EC5"/>
<path opacity="0.74" d="M131.139 39.9595H110.057V42.0611H131.139V39.9595Z" fill="#5D3EC5"/>
</g>
<path d="M39.4062 27.1132C39.3435 26.9308 39.3159 26.7391 39.3248 26.5474C39.3378 26.4649 39.3378 26.3811 39.3248 26.2986C39.2767 26.1825 39.2048 26.0768 39.1132 25.9878C39.0101 25.8559 38.9426 25.7019 38.9164 25.5393C38.8903 25.3766 38.9065 25.2103 38.9634 25.0551C39.188 25.0115 39.2662 24.8437 39.3443 24.6416C39.3992 24.4317 39.4906 24.232 39.6145 24.0509C39.628 24.0313 39.6457 24.0148 39.6665 24.0025C39.6873 23.9902 39.7106 23.9823 39.7349 23.9794C39.7614 23.9819 39.7868 23.9909 39.8085 24.0057C39.8302 24.0204 39.8475 24.0403 39.8586 24.0633C39.9531 24.2436 39.8294 24.4892 39.9563 24.6478C40.0312 24.7348 40.1614 24.7628 40.2525 24.8312C40.4479 24.9711 40.4576 25.2571 40.6302 25.4157C40.6709 25.4459 40.7081 25.4803 40.7409 25.5183C40.7768 25.5809 40.7905 25.6529 40.7799 25.7235C40.7603 26.0003 40.6599 26.2663 40.4902 26.4914C40.3253 26.6491 40.2064 26.8453 40.1451 27.0603C40.1463 27.1275 40.1375 27.1945 40.1191 27.2593C40.0893 27.314 40.0406 27.3572 39.9813 27.3816C39.9219 27.406 39.8556 27.41 39.7935 27.393C39.6731 27.365 39.5071 27.1723 39.4062 27.1132Z" fill="url(#paint5_linear)"/>
<path d="M33.0549 34.6244C32.9641 34.5051 32.8543 34.4002 32.7294 34.3135C32.5254 34.1887 32.2838 34.1319 32.0425 34.1519C31.8036 34.174 31.5665 34.2114 31.3328 34.2638C30.3106 34.4441 29.2624 34.2172 28.2239 34.2638C27.0585 34.3291 26.6223 35.5074 26.4172 35.9799C26.0161 36.8909 25.7594 37.8539 25.6555 38.8371C25.6066 39.3034 25.5936 39.7698 25.5806 40.2423C25.522 42.1481 25.3885 44.0352 25.4666 45.941L25.5969 49.0686C25.5823 49.2565 25.6339 49.4436 25.7434 49.6003C25.8634 49.7142 26.0165 49.791 26.1828 49.821C28.0221 50.3278 29.9623 50.3402 31.8764 50.3402C32.8531 50.3402 33.9664 50.2842 34.6109 49.5816C35.3206 48.8044 35.1351 47.6323 34.9853 46.6126C34.4352 42.7015 35.5485 37.7707 33.0549 34.6244Z" fill="#5D3EC5"/>
<path d="M33.0549 34.6244C32.9641 34.5051 32.8543 34.4002 32.7294 34.3135C32.5254 34.1887 32.2838 34.1319 32.0425 34.1519C31.8036 34.174 31.5665 34.2114 31.3328 34.2638C30.3106 34.4441 29.2624 34.2172 28.2239 34.2638C27.0585 34.3291 26.6223 35.5074 26.4172 35.9799C26.0161 36.8909 25.7594 37.8539 25.6555 38.8371C25.6066 39.3034 25.5936 39.7698 25.5806 40.2423C25.522 42.1481 25.3885 44.0352 25.4666 45.941L25.5969 49.0686C25.5823 49.2565 25.6339 49.4436 25.7434 49.6003C25.8634 49.7142 26.0165 49.791 26.1828 49.821C28.0221 50.3278 29.9623 50.3402 31.8764 50.3402C32.8531 50.3402 33.9664 50.2842 34.6109 49.5816C35.3206 48.8044 35.1351 47.6323 34.9853 46.6126C34.4352 42.7015 35.5485 37.7707 33.0549 34.6244Z" fill="url(#paint6_linear)"/>
<path d="M31.7723 33.1943C32.012 33.0314 32.2101 32.8188 32.3518 32.5725C32.4451 32.3357 32.4775 32.0808 32.4462 31.8295C32.4277 31.4308 32.3165 31.0411 32.1206 30.6885C32.0216 30.5129 31.8854 30.3589 31.7206 30.2363C31.5558 30.1137 31.3661 30.0253 31.1636 29.9766C30.5125 29.8491 29.8419 30.2875 29.5359 30.8409C29.2565 31.4254 29.1239 32.0641 29.1485 32.7062C29.1257 33.5115 28.4779 34.7426 29.269 35.0255C30.1837 35.3519 30.8966 34.4037 31.0496 33.9871C31.2032 33.6605 31.4547 33.3846 31.7723 33.1943Z" fill="url(#paint7_linear)"/>
<path d="M32.0653 29.0718C32.0617 29.3476 31.9771 29.6169 31.8211 29.8491C31.6853 30.1032 31.5216 30.3429 31.3328 30.5641C31.2017 30.6878 31.0918 30.8305 31.0073 30.987C30.9369 31.2576 30.9621 31.5428 31.0789 31.7984C30.9389 31.8668 30.8055 31.5621 30.6753 31.6461C30.6513 31.6668 30.6343 31.6938 30.6264 31.7238C30.5948 31.82 30.5911 31.9225 30.6158 32.0205C30.6404 32.1186 30.6925 32.2083 30.7664 32.2803C30.8097 32.3132 30.8452 32.3545 30.8706 32.4015C30.9096 32.4979 30.825 32.5974 30.7859 32.6938C30.6883 32.9301 30.8608 33.2192 30.7306 33.4399C30.6641 33.521 30.5775 33.5851 30.4786 33.6264C30.3797 33.6676 30.2717 33.6847 30.1642 33.6762C29.7833 33.7011 29.4024 33.7104 29.0215 33.7011C28.9439 33.706 28.8664 33.6909 28.7969 33.6576C28.7477 33.6195 28.707 33.5724 28.6773 33.519C28.6477 33.4655 28.6297 33.4069 28.6244 33.3467C28.4023 32.4514 28.293 31.5339 28.2988 30.6139C28.2753 30.3423 28.3413 30.0706 28.4877 29.8366C28.6016 29.6905 28.7676 29.5942 28.8881 29.4605C29.0085 29.3268 29.1257 29.0718 29.2852 28.904C29.524 28.6958 29.8178 28.5539 30.1349 28.4936C30.7632 28.335 31.9937 28.1081 32.0653 29.0718Z" fill="#3F3D56"/>
<path d="M25.5382 57.4037C25.5973 57.8741 25.6093 58.3488 25.574 58.8214C25.5176 59.1999 25.4283 59.5732 25.3071 59.9375C24.8993 61.4145 24.3815 62.8618 23.7575 64.2683C23.3083 65.201 22.7581 66.1337 22.4001 67.1036C22.0289 68.2538 21.7899 69.439 21.6871 70.6385C22.0023 70.5592 22.2828 70.3861 22.488 70.1442C25.3753 67.3582 27.8042 64.1706 29.6921 60.6899C30.1209 59.9547 30.4491 59.17 30.6687 58.3551C30.8054 57.6632 30.8741 56.9606 30.8738 56.2565C30.9574 54.7385 30.9335 53.2168 30.8021 51.7019C30.7435 51.1734 30.6133 50.5796 30.1511 50.2998C29.9161 50.1799 29.6555 50.1129 29.3893 50.1039C28.5006 50.0262 27.5924 50.1039 26.7167 49.9174C26.3911 49.8552 25.8865 49.5567 25.6457 49.7557C25.4048 49.9547 25.5382 50.9309 25.5252 51.1982C25.3957 53.265 25.4 55.3375 25.5382 57.4037Z" fill="#3F3D56"/>
<path d="M25.5382 57.4037C25.5973 57.8741 25.6093 58.3488 25.574 58.8214C25.5176 59.1999 25.4283 59.5732 25.3071 59.9375C24.8993 61.4145 24.3815 62.8618 23.7575 64.2683C23.3083 65.201 22.7581 66.1337 22.4001 67.1036C22.0289 68.2538 21.7899 69.439 21.6871 70.6385C22.0023 70.5592 22.2828 70.3861 22.488 70.1442C25.3753 67.3582 27.8042 64.1706 29.6921 60.6899C30.1209 59.9547 30.4491 59.17 30.6687 58.3551C30.8054 57.6632 30.8741 56.9606 30.8738 56.2565C30.9574 54.7385 30.9335 53.2168 30.8021 51.7019C30.7435 51.1734 30.6133 50.5796 30.1511 50.2998C29.9161 50.1799 29.6555 50.1129 29.3893 50.1039C28.5006 50.0262 27.5924 50.1039 26.7167 49.9174C26.3911 49.8552 25.8865 49.5567 25.6457 49.7557C25.4048 49.9547 25.5382 50.9309 25.5252 51.1982C25.3957 53.265 25.4 55.3375 25.5382 57.4037Z" fill="url(#paint8_linear)"/>
<path d="M32.2965 61.7935C32.3734 62.9848 32.3035 64.1807 32.0882 65.3564L31.245 71.394C31.2893 71.4681 31.3492 71.5328 31.4208 71.5839C31.4925 71.635 31.5744 71.6714 31.6614 71.691C31.7485 71.7105 31.8388 71.7127 31.9268 71.6975C32.0148 71.6822 32.0985 71.6498 32.1728 71.6023C32.465 71.3992 32.6908 71.121 32.8239 70.8002C34.1032 68.4001 35.3989 65.9533 35.8741 63.3014C36.0743 62.055 36.156 60.7938 36.1183 59.5333C36.0775 56.3667 35.6979 53.2123 34.9854 50.1194C34.97 49.9714 34.8996 49.8335 34.7868 49.7308C34.6408 49.6575 34.4718 49.6376 34.3116 49.6748L31.411 50.023C30.7176 50.107 27.3353 50.0075 27.3353 50.0075C27.3353 50.0075 28.5105 52.7682 28.8458 53.6232C29.8647 56.2223 32.2965 58.9209 32.2965 61.7935Z" fill="#3F3D56"/>
<path d="M21.0296 71.108C21.083 71.2275 21.1643 71.3339 21.2673 71.4189C21.915 72.0255 22.7466 72.4215 23.6437 72.5505C23.7615 72.5832 23.8861 72.5861 24.0054 72.5589C24.1247 72.5316 24.2345 72.4752 24.3241 72.3951C24.3872 72.2982 24.4136 72.1836 24.3988 72.0704C24.384 71.9572 24.3288 71.8523 24.2427 71.7733C24.0747 71.619 23.8767 71.4976 23.66 71.4157C23.4471 71.3361 23.2533 71.2163 23.09 71.0635C22.9267 70.9108 22.7972 70.7281 22.7094 70.5266C22.2439 69.0467 20.6292 69.8924 21.0296 71.108Z" fill="url(#paint9_linear)"/>
<path d="M30.9356 72.7184C31.0987 72.9694 31.3451 73.1609 31.6355 73.2625C32.3387 73.5734 33.1298 73.8408 33.8915 73.6729C34.114 73.6371 34.316 73.5269 34.4612 73.362C34.531 73.2787 34.5673 73.1744 34.5638 73.0679C34.5602 72.9613 34.5169 72.8594 34.4417 72.7806C34.2659 72.6283 33.9892 72.6749 33.7515 72.65C33.614 72.634 33.4817 72.5902 33.3633 72.5216C33.2448 72.453 33.143 72.3611 33.0646 72.2521C32.9768 72.1277 32.9214 71.9847 32.84 71.8572C32.1401 70.7318 30.3334 71.5339 30.9356 72.7184Z" fill="url(#paint10_linear)"/>
<path d="M20.9742 70.1069C21.038 70.0384 21.119 69.9865 21.2095 69.956C21.3 69.9256 21.3972 69.9176 21.4919 69.9328C21.7653 69.995 21.9085 70.3028 22.169 70.4085C22.2862 70.4551 22.4164 70.4582 22.5368 70.4987C22.7616 70.6021 22.9612 70.7493 23.1228 70.9308C23.585 71.335 24.2524 71.5526 24.5584 72.0656C24.5964 72.1163 24.6203 72.1755 24.6277 72.2375C24.6351 72.2996 24.6258 72.3623 24.6007 72.42C24.5708 72.4588 24.5328 72.4913 24.4891 72.5154C24.4454 72.5395 24.397 72.5546 24.3468 72.5599C23.9985 72.6252 23.5395 72.7433 23.2107 72.6127C22.6425 72.3997 22.0918 72.1461 21.5635 71.8542C21.2737 71.6863 21.0654 71.2324 20.8571 70.9619C20.6031 70.6386 20.6845 70.3929 20.9742 70.1069Z" fill="#3F3D56"/>
<path d="M30.9814 71.7639C30.8935 71.7297 30.7861 71.6862 30.7177 71.7484C30.7022 71.7623 30.69 71.7793 30.6819 71.7981C30.602 71.9922 30.5876 72.2054 30.6407 72.4077C30.6938 72.61 30.8118 72.7914 30.9781 72.9266C31.3142 73.1947 31.6964 73.4051 32.1077 73.5484C32.5176 73.7526 32.9562 73.8992 33.4099 73.9837C33.6356 74.0239 33.8685 74.0047 34.0836 73.928C34.2987 73.8513 34.4878 73.7201 34.6306 73.5484C34.7264 73.4194 34.7672 73.2605 34.7446 73.1038C34.6762 72.7619 34.2693 72.6126 33.9307 72.4821C33.501 72.3204 33.1267 72.025 32.6839 71.8945C32.1175 71.7173 31.512 71.9722 30.9814 71.7639Z" fill="#3F3D56"/>
<path d="M33.0289 34.4254L35.5876 33.2098C35.9099 33.0714 36.2147 32.8982 36.4959 32.6938C38.0161 31.5124 37.9315 29.3299 38.7193 27.6168C38.7584 27.5018 38.8377 27.403 38.9439 27.337C39.0373 27.3074 39.137 27.301 39.2336 27.3184L40.2656 27.4365L39.442 33.2223C39.3972 33.646 39.3011 34.0633 39.1555 34.4659C39.0283 34.7497 38.8712 35.0206 38.6867 35.2742C37.6977 36.6914 36.4401 37.9198 34.9789 38.8961C34.8262 39.0141 34.6485 39.099 34.458 39.1448C34.2336 39.1782 34.004 39.1377 33.8069 39.0298C33.1005 38.6785 32.8076 37.8639 32.6708 37.1147C32.4603 36.2057 32.5869 35.2551 33.0289 34.4254Z" fill="#5D3EC5"/>
<path d="M33.0289 34.4254L35.5876 33.2098C35.9099 33.0714 36.2147 32.8982 36.4959 32.6938C38.0161 31.5124 37.9315 29.3299 38.7193 27.6168C38.7584 27.5018 38.8377 27.403 38.9439 27.337C39.0373 27.3074 39.137 27.301 39.2336 27.3184L40.2656 27.4365L39.442 33.2223C39.3972 33.646 39.3011 34.0633 39.1555 34.4659C39.0283 34.7497 38.8712 35.0206 38.6867 35.2742C37.6977 36.6914 36.4401 37.9198 34.9789 38.8961C34.8262 39.0141 34.6485 39.099 34.458 39.1448C34.2336 39.1782 34.004 39.1377 33.8069 39.0298C33.1005 38.6785 32.8076 37.8639 32.6708 37.1147C32.4603 36.2057 32.5869 35.2551 33.0289 34.4254Z" fill="url(#paint11_linear)"/>
<path d="M138.47 103.205H30.6818V108.981H138.47V103.205Z" fill="#5D3EC5"/>
<path d="M138.47 104.256H30.6818V108.981H138.47V104.256Z" fill="url(#paint12_linear)"/>
<path d="M154.096 106.836C153.62 108.95 152.322 111.22 149.919 113.147C145.511 116.685 139.811 117.602 135.804 117.752C135.309 117.77 134.827 117.779 134.326 117.779C130.745 117.779 127.164 117.329 123.7 116.89L121.246 116.579C117.095 116.085 112.313 115.678 108.094 117.099L107.723 116.091L107.336 115.047C112.02 113.467 117.118 113.896 121.526 114.425C122.349 114.521 123.173 114.627 124 114.736C127.848 115.221 131.829 115.724 135.719 115.581C139.368 115.445 144.544 114.624 148.457 111.484C150.017 110.24 151.387 108.412 151.872 106.478C152.147 105.463 152.118 104.395 151.791 103.394C151.649 102.979 151.454 102.582 151.208 102.213C150.101 100.543 148.112 99.4709 146.41 98.9921C143.88 98.2802 141.12 98.3703 138.444 98.4605H138.346L138.31 97.5029L138.265 96.2873C141.012 96.191 144.125 96.0821 147.054 96.9091C150.463 97.8667 153.044 100.043 153.956 102.726C154.377 104.061 154.425 105.478 154.096 106.836Z" fill="#5D3EC5"/>
<path d="M154.141 105.655C153.946 108.089 152.654 110.887 149.782 113.194C145.375 116.729 139.671 117.649 135.664 117.795C135.172 117.814 134.687 117.823 134.186 117.823C130.605 117.823 127.024 117.372 123.564 116.934L121.106 116.623C116.955 116.129 112.173 115.721 107.958 117.142L107.199 115.09C107.388 115.028 107.577 114.966 107.769 114.91L108.14 115.917C112.372 114.497 117.141 114.904 121.292 115.398L123.746 115.709C127.213 116.147 130.784 116.598 134.372 116.598C134.863 116.598 135.348 116.598 135.85 116.57C139.857 116.421 145.557 115.504 149.965 111.966C152.367 110.038 153.666 107.769 154.141 105.655Z" fill="url(#paint13_linear)"/>
<path d="M98.6927 104.837L114.091 108.195L111.157 121.063L100.968 125.729L87.006 119.925L96.3717 115.927L98.6927 104.837Z" fill="#5D3EC5"/>
<path d="M98.6927 104.837L114.091 108.195L111.157 121.063L100.968 125.729L87.006 119.925L96.3717 115.927L98.6927 104.837Z" fill="url(#paint14_linear)"/>
<path d="M97.6837 104.576L113.082 107.93L110.149 120.798L100.158 125.44L86.1956 119.632L95.3627 115.662L97.6837 104.576Z" fill="#5D3EC5"/>
<path d="M97.3158 115.721L109.234 119.312L111.708 108.894L99.3341 106.357L97.3158 115.721Z" fill="#5D3EC5"/>
<path d="M97.3158 115.721L109.234 119.312L111.708 108.894L99.3341 106.357L97.3158 115.721Z" fill="url(#paint15_linear)"/>
<path d="M151.55 102.272L151.205 102.21C150.098 100.54 148.109 99.4678 146.407 98.989C143.877 98.2771 141.029 98.3672 138.353 98.4605L138.323 97.4159C138.323 97.4159 144.183 97.105 147.653 98.6968C149.854 99.7103 151.55 102.272 151.55 102.272Z" fill="url(#paint16_linear)"/>
</g>
<defs>
<linearGradient id="paint0_linear" x1="141.266" y1="109.581" x2="155.147" y2="109.581" gradientUnits="userSpaceOnUse">
<stop stop-opacity="0"/>
<stop offset="0.99"/>
</linearGradient>
<linearGradient id="paint1_linear" x1="12037.9" y1="9510.96" x2="54999.7" y2="9510.96" gradientUnits="userSpaceOnUse">
<stop stop-opacity="0"/>
<stop offset="0.99"/>
</linearGradient>
<linearGradient id="paint2_linear" x1="371.806" y1="1501.7" x2="807.739" y2="1435.77" gradientUnits="userSpaceOnUse">
<stop stop-opacity="0"/>
<stop offset="0.99"/>
</linearGradient>
<linearGradient id="paint3_linear" x1="195.491" y1="-64.7004" x2="24.8331" y2="131.499" gradientUnits="userSpaceOnUse">
<stop stop-color="white" stop-opacity="0"/>
<stop offset="0.99" stop-color="white"/>
</linearGradient>
<linearGradient id="paint4_linear" x1="86.4726" y1="-2.27647e+06" x2="73616.1" y2="1.23428e+06" gradientUnits="userSpaceOnUse">
<stop stop-opacity="0"/>
<stop offset="0.99"/>
</linearGradient>
<linearGradient id="paint5_linear" x1="38.8951" y1="25.6831" x2="40.7702" y2="25.6831" gradientUnits="userSpaceOnUse">
<stop stop-color="#ECC4D7"/>
<stop offset="0.42" stop-color="#EFD4D1"/>
<stop offset="1" stop-color="#F2EAC9"/>
</linearGradient>
<linearGradient id="paint6_linear" x1="929.232" y1="2661.18" x2="3294.68" y2="853.896" gradientUnits="userSpaceOnUse">
<stop stop-opacity="0"/>
<stop offset="0.99"/>
</linearGradient>
<linearGradient id="paint7_linear" x1="357.252" y1="674.193" x2="396.639" y2="674.193" gradientUnits="userSpaceOnUse">
<stop stop-color="#ECC4D7"/>
<stop offset="0.42" stop-color="#EFD4D1"/>
<stop offset="1" stop-color="#F2EAC9"/>
</linearGradient>
<linearGradient id="paint8_linear" x1="836.435" y1="4475.65" x2="938.425" y2="4464.41" gradientUnits="userSpaceOnUse">
<stop stop-opacity="0"/>
<stop offset="0.99"/>
</linearGradient>
<linearGradient id="paint9_linear" x1="252.681" y1="778.272" x2="288.9" y2="778.272" gradientUnits="userSpaceOnUse">
<stop stop-color="#ECC4D7"/>
<stop offset="0.42" stop-color="#EFD4D1"/>
<stop offset="1" stop-color="#F2EAC9"/>
</linearGradient>
<linearGradient id="paint10_linear" x1="397.047" y1="683.013" x2="440.24" y2="683.013" gradientUnits="userSpaceOnUse">
<stop stop-color="#ECC4D7"/>
<stop offset="0.42" stop-color="#EFD4D1"/>
<stop offset="1" stop-color="#F2EAC9"/>
</linearGradient>
<linearGradient id="paint11_linear" x1="976.015" y1="1623.03" x2="-115.369" y2="802.812" gradientUnits="userSpaceOnUse">
<stop stop-opacity="0"/>
<stop offset="0.99"/>
</linearGradient>
<linearGradient id="paint12_linear" x1="28035.2" y1="1838.42" x2="28035.2" y2="1617.87" gradientUnits="userSpaceOnUse">
<stop stop-color="white" stop-opacity="0"/>
<stop offset="0.99" stop-color="white"/>
</linearGradient>
<linearGradient id="paint13_linear" x1="22437.2" y1="3924.35" x2="19858.4" y2="13389.4" gradientUnits="userSpaceOnUse">
<stop stop-opacity="0"/>
<stop offset="0.99"/>
</linearGradient>
<linearGradient id="paint14_linear" x1="8648.72" y1="7884.45" x2="10504.5" y2="9712.65" gradientUnits="userSpaceOnUse">
<stop stop-opacity="0"/>
<stop offset="0.99"/>
</linearGradient>
<linearGradient id="paint15_linear" x1="4873.72" y1="4129.41" x2="4622.13" y2="5416.98" gradientUnits="userSpaceOnUse">
<stop stop-color="white" stop-opacity="0"/>
<stop offset="0.99" stop-color="white"/>
</linearGradient>
<linearGradient id="paint16_linear" x1="6213.93" y1="1714.76" x2="5982.53" y2="2311.3" gradientUnits="userSpaceOnUse">
<stop stop-opacity="0"/>
<stop offset="0.99"/>
</linearGradient>
<clipPath id="clip0">
<rect width="167" height="135" fill="white"/>
</clipPath>
</defs>
</svg>
