<svg width="177" height="144" viewBox="0 0 177 144" fill="none" xmlns="http://www.w3.org/2000/svg">
<g clip-path="url(#clip0)">
<path opacity="0.24" d="M176.565 107.745C175.371 115.747 171.181 123.057 165.346 128.227C164.939 128.582 164.535 128.917 164.122 129.251C164.122 129.251 164.103 129.251 164.093 129.272C160.047 132.562 155.299 134.727 150.275 135.573C141.049 137.046 131.753 134.081 122.445 133.565C105.762 132.632 89.6823 139.516 73.246 142.665C56.8097 145.814 37.4702 144.047 27.0472 130.095C26.9845 130.018 26.9344 129.941 26.8718 129.854C23.5739 125.342 21.4974 119.974 18.8885 114.944C18.4375 114.067 17.9719 113.208 17.4917 112.367C12.869 104.362 6.07902 97.8088 2.54309 89.201C0.808151 84.9072 -0.0574913 80.2698 0.00296163 75.5933C0.0634146 70.9168 1.0486 66.3067 2.89386 62.0657C6.22308 54.5322 12.0766 48.6788 17.7892 43.0061C18.1588 42.6446 18.519 42.2832 18.8885 41.9184C23.7889 37.0545 28.6956 32.1916 33.6085 27.33C36.3082 24.6526 39.0111 21.9752 41.8173 19.425C45.5348 16.0113 49.3965 12.8286 53.6089 10.1813C63.8753 3.70535 73.6344 4.44164 84.7808 2.41017C97.6655 0.0674519 110.857 -1.97071 123.388 3.33386C130.704 6.41956 136.98 11.7007 143.144 16.8915L146.148 19.425C151.785 24.1807 157.422 28.9431 162.966 33.7958C164.178 34.8601 165.399 35.9478 166.539 37.1125C168.306 38.913 169.878 40.8976 170.886 43.2604C172.099 46.0817 172.405 49.231 172.703 52.3167C173.906 65.0343 175.115 77.7519 176.33 90.4695C176.862 96.2158 177.407 102.036 176.565 107.745Z" fill="#5D3EC5"/>
<path d="M41.8206 19.4244C39.0019 21.9713 36.3115 24.6621 33.6118 27.3294C28.7094 32.1934 23.8027 37.0562 18.8919 41.9179V24.3442C18.8906 23.6977 19.0089 23.0574 19.2398 22.4599C19.4707 21.8624 19.8098 21.3195 20.2375 20.8624C20.6653 20.4053 21.1733 20.043 21.7325 19.7962C22.2916 19.5495 22.8908 19.4231 23.4958 19.4244H41.8206Z" fill="url(#paint0_linear)"/>
<path d="M166.527 37.1119V124.934C166.529 126.15 166.108 127.324 165.346 128.227C164.994 128.641 164.58 128.99 164.121 129.261C164.121 129.261 164.103 129.261 164.093 129.281C163.425 129.657 162.681 129.854 161.926 129.853H26.8717C23.5738 125.342 21.4973 119.974 18.8884 114.944V41.9179C23.7888 37.0539 28.6955 32.1911 33.6084 27.3294C36.3081 24.652 39.011 21.9747 41.8172 19.4244H146.147C151.785 24.1802 157.422 28.9426 162.966 33.7953C164.165 34.873 165.387 35.9473 166.527 37.1119Z" fill="url(#paint1_linear)"/>
<path d="M157.877 15.4016H19.4399C16.899 15.4016 14.8391 17.6027 14.8391 20.318V120.921C14.8391 123.636 16.899 125.837 19.4399 125.837H157.877C160.418 125.837 162.477 123.636 162.477 120.921V20.318C162.477 17.6027 160.418 15.4016 157.877 15.4016Z" fill="#5D3EC5"/>
<path d="M162.48 20.3247V120.918C162.48 122.222 161.994 123.472 161.131 124.394C160.267 125.316 159.097 125.834 157.876 125.834H19.446C18.8413 125.835 18.2423 125.709 17.6834 125.462C17.1244 125.216 16.6166 124.854 16.1888 124.397C15.7611 123.94 15.422 123.398 15.1909 122.801C14.9598 122.204 14.8412 121.564 14.842 120.918V20.3247C14.8412 19.6788 14.9597 19.0391 15.1906 18.4422C15.4215 17.8454 15.7604 17.303 16.1877 16.8463C16.6151 16.3896 17.1226 16.0275 17.6812 15.7808C18.2398 15.534 18.8384 15.4074 19.4428 15.4083H157.873C158.478 15.4079 159.077 15.5347 159.635 15.7815C160.194 16.0284 160.702 16.3904 161.13 16.8469C161.557 17.3034 161.897 17.8455 162.129 18.4423C162.36 19.039 162.48 19.6786 162.48 20.3247Z" fill="url(#paint2_linear)"/>
<path opacity="0.24" d="M162.48 20.3247V26.9579H14.842V20.3247C14.8412 19.6788 14.9597 19.0391 15.1906 18.4422C15.4215 17.8454 15.7604 17.303 16.1877 16.8463C16.6151 16.3896 17.1226 16.0275 17.6812 15.7808C18.2398 15.534 18.8384 15.4074 19.4428 15.4083H157.873C158.478 15.4079 159.077 15.5347 159.635 15.7815C160.194 16.0284 160.702 16.3904 161.13 16.8469C161.557 17.3034 161.897 17.8455 162.129 18.4423C162.36 19.039 162.48 19.6786 162.48 20.3247Z" fill="#5D3EC5"/>
<path d="M162.48 20.3247V26.9579H14.842V20.3247C14.8412 19.6788 14.9597 19.0391 15.1906 18.4422C15.4215 17.8454 15.7604 17.303 16.1877 16.8463C16.6151 16.3896 17.1226 16.0275 17.6812 15.7808C18.2398 15.534 18.8384 15.4074 19.4428 15.4083H157.873C158.478 15.4079 159.077 15.5347 159.635 15.7815C160.194 16.0284 160.702 16.3904 161.13 16.8469C161.557 17.3034 161.897 17.8455 162.129 18.4423C162.36 19.039 162.48 19.6786 162.48 20.3247Z" fill="#5D3EC5"/>
<path d="M162.48 20.3247V26.9579H14.842V20.3247C14.8412 19.6788 14.9597 19.0391 15.1906 18.4422C15.4215 17.8454 15.7604 17.303 16.1877 16.8463C16.6151 16.3896 17.1226 16.0275 17.6812 15.7808C18.2398 15.534 18.8384 15.4074 19.4428 15.4083H157.873C158.478 15.4079 159.077 15.5347 159.635 15.7815C160.194 16.0284 160.702 16.3904 161.13 16.8469C161.557 17.3034 161.897 17.8455 162.129 18.4423C162.36 19.039 162.48 19.6786 162.48 20.3247Z" fill="url(#paint3_linear)"/>
<path opacity="0.24" d="M61.8928 47.1522H27.5671C25.6506 47.1522 24.0969 48.8124 24.0969 50.8604V50.8637C24.0969 52.9117 25.6506 54.5719 27.5671 54.5719H61.8928C63.8093 54.5719 65.363 52.9117 65.363 50.8637V50.8604C65.363 48.8124 63.8093 47.1522 61.8928 47.1522Z" fill="#5D3EC5"/>
<path d="M44.7174 97.6377H27.5671C25.6506 97.6377 24.0969 99.2979 24.0969 101.346V101.349C24.0969 103.397 25.6506 105.057 27.5671 105.057H44.7174C46.6339 105.057 48.1876 103.397 48.1876 101.349V101.346C48.1876 99.2979 46.6339 97.6377 44.7174 97.6377Z" fill="#5D3EC5"/>
<path d="M44.7174 97.6377H27.5671C25.6506 97.6377 24.0969 99.2979 24.0969 101.346V101.349C24.0969 103.397 25.6506 105.057 27.5671 105.057H44.7174C46.6339 105.057 48.1876 103.397 48.1876 101.349V101.346C48.1876 99.2979 46.6339 97.6377 44.7174 97.6377Z" fill="url(#paint4_linear)"/>
<path opacity="0.24" d="M47.6552 57.7111H27.2069C26.2348 57.7111 25.4468 58.5532 25.4468 59.5919V59.5953C25.4468 60.634 26.2348 61.4761 27.2069 61.4761H47.6552C48.6273 61.4761 49.4153 60.634 49.4153 59.5953V59.5919C49.4153 58.5532 48.6273 57.7111 47.6552 57.7111Z" fill="#5D3EC5"/>
<path opacity="0.24" d="M162.17 26.958V123.398H162.139C162.139 123.398 162.139 123.398 162.12 123.398C162.078 123.367 162.033 123.342 161.986 123.321C161.647 123.153 160.867 122.772 159.706 122.189C159.571 122.122 159.439 122.055 159.295 121.992L158.597 121.641C158.431 121.564 158.268 121.477 158.102 121.4C156.715 120.707 155.011 119.86 153.06 118.883C152.461 118.588 151.848 118.28 151.199 117.952L128.884 106.828C128.433 106.61 127.992 106.379 127.541 106.159C126.842 105.807 126.131 105.456 125.424 105.104C124.775 104.77 124.118 104.458 123.46 104.127C121.725 103.261 119.993 102.398 118.264 101.537C117.729 101.276 117.184 101.011 116.651 100.737C115.746 100.285 114.853 99.8365 113.958 99.3981C113.645 99.2308 113.313 99.0634 112.984 98.9128L112.069 98.461C111.484 98.1732 110.907 97.8887 110.331 97.5909C107.744 96.3091 105.226 95.0574 102.843 93.8593C102.307 93.6082 101.784 93.3439 101.261 93.0795C99.695 92.2997 98.1791 91.5433 96.751 90.8305C96.04 90.479 95.3636 90.1377 94.6965 89.8097L93.5314 89.2341L92.8236 88.8827L92.1252 88.5312L91.0259 87.9824C90.0205 87.477 89.0841 87.0185 88.2071 86.5901C87.9503 86.4563 87.7029 86.3358 87.4649 86.2153C86.707 85.8304 86.0179 85.4924 85.4103 85.1845C85.2068 85.0975 85.022 84.9971 84.8372 84.9101C84.0041 84.4917 83.3558 84.1738 82.9361 83.9663C82.8559 83.9171 82.7733 83.8724 82.6887 83.8324C82.3411 83.6584 81.9997 83.481 81.6708 83.297C81.0758 82.9623 80.512 82.6276 79.9859 82.2929C79.751 82.139 79.5161 81.975 79.2875 81.8077C79.2397 81.7859 79.1954 81.7566 79.1559 81.7206C78.9586 81.5801 78.7644 81.4261 78.5702 81.2722C78.2602 81.0431 77.9613 80.7973 77.6745 80.5359C77.4803 80.3585 77.2862 80.1845 77.1014 80.0071C77.1014 80.0071 77.0795 80.0071 77.0701 79.977C76.8759 79.7896 76.6786 79.5921 76.4938 79.3947C76.4938 79.3947 76.4938 79.3947 76.475 79.3712C76.2464 79.1403 76.0428 78.8993 75.8486 78.6684C75.6544 78.4375 75.4477 78.1865 75.2755 77.9455C75.1032 77.7046 74.9153 77.4502 74.7493 77.1992C74.5833 76.9482 74.4205 76.6938 74.2764 76.4395C74.1323 76.1851 73.9914 75.9241 73.8661 75.663C73.483 74.8907 73.1684 74.0817 72.9265 73.2467C71.9181 69.7226 72.2156 65.8839 73.3775 61.9515C73.3941 61.8798 73.4151 61.8094 73.4402 61.7406C75.8016 53.9026 81.5142 45.77 86.8855 39.3577C90.5231 35.0345 94.4168 30.9655 98.5424 27.1755L162.17 26.958Z" fill="#5D3EC5"/>
<path opacity="0.24" d="M162.17 45.2478V88.4877C162.136 88.4942 162.101 88.4942 162.067 88.4877C161.967 88.5077 161.864 88.5178 161.754 88.5312C156.658 88.9696 151.594 87.2561 146.489 87.323C142.552 87.3565 138.712 88.4441 134.857 89.3109C124.647 91.602 114.191 92.3846 103.782 91.6369C101.44 91.4629 99.0844 91.2085 96.7448 90.8036C91.8935 89.9569 87.1674 88.4609 83.0083 85.6965C80.5006 84.0377 78.3015 81.8978 76.5221 79.3845C76.5221 79.3845 76.5221 79.3845 76.5033 79.3611C76.2245 78.9662 75.9583 78.5713 75.7109 78.1663C74.7438 76.6097 73.9769 74.9212 73.4309 73.1462C73.3181 72.7848 73.2148 72.4233 73.1177 72.0485L73.3964 61.9514C73.413 61.8797 73.4339 61.8093 73.4591 61.7405C75.8205 53.9025 81.5331 45.7699 86.9043 39.3576H88.4171V47.122H91.0259V40.8971H94.1077V46.6836H98.2293V53.4473H102.874V46.8476H110.989V53.4473H118.089V43.0724H121.719V46.4192H124.76V53.4473H127.801V48.7619H131.518V53.4473H133.554V45.7498H137.099V42.6106H143.858V53.4473H146.846V36.3422H153.608V53.4473H156.427V39.2404H161.613V45.2646L162.17 45.2478Z" fill="#5D3EC5"/>
<path d="M162.17 123.397C162.17 123.397 88.3481 86.6536 82.7169 83.8323C77.0857 81.011 74.1292 77.3765 72.9485 73.2399L161.976 56.0143L162.17 123.397Z" fill="#5D3EC5"/>
<path d="M162.17 123.397C162.17 123.397 88.3481 86.6536 82.7169 83.8323C77.0857 81.011 74.1292 77.3765 72.9485 73.2399L161.976 56.0143L162.17 123.397Z" fill="url(#paint5_linear)"/>
<path d="M102.677 82.5974L161.685 69.3042V77.0318L113.09 88.4676L102.677 82.5974Z" fill="url(#paint6_linear)"/>
<path d="M54.2759 71.416H24.9644V77.3933H54.2759V71.416Z" fill="url(#paint7_linear)"/>
<path d="M54.2759 79.1437H24.9644V85.1209H54.2759V79.1437Z" fill="url(#paint8_linear)"/>
<path d="M122.37 73.9294C122.984 73.9294 123.482 73.3135 123.482 72.5538C123.482 71.7942 122.984 71.1783 122.37 71.1783C121.756 71.1783 121.258 71.7942 121.258 72.5538C121.258 73.3135 121.756 73.9294 122.37 73.9294Z" fill="#5D3EC5"/>
<path d="M122.373 73.9294C122.987 73.9294 123.485 73.3135 123.485 72.5538C123.485 71.7942 122.987 71.1783 122.373 71.1783C121.759 71.1783 121.261 71.7942 121.261 72.5538C121.261 73.3135 121.759 73.9294 122.373 73.9294Z" fill="url(#paint9_linear)"/>
<path d="M122.696 73.5846C123.037 73.5846 123.313 73.1216 123.313 72.5505C123.313 71.9794 123.037 71.5164 122.696 71.5164C122.355 71.5164 122.079 71.9794 122.079 72.5505C122.079 73.1216 122.355 73.5846 122.696 73.5846Z" fill="url(#paint10_linear)"/>
<path d="M123.707 70.6831C123.707 70.6831 123.181 71.8946 123.673 72.3565C123.892 72.5726 124.13 72.7654 124.384 72.9321L124.168 73.2668L122.47 72.5807C122.47 72.5807 122.332 72.3096 122.505 72.1624C122.505 72.1624 122.78 72.2259 122.896 72.0419C123.011 71.6225 123.088 71.192 123.125 70.7567L123.707 70.6831Z" fill="#5D3EC5"/>
<path d="M123.707 70.6831C123.707 70.6831 123.181 71.8946 123.673 72.3565C123.892 72.5726 124.13 72.7654 124.384 72.9321L124.168 73.2668L122.47 72.5807C122.47 72.5807 122.332 72.3096 122.505 72.1624C122.505 72.1624 122.78 72.2259 122.896 72.0419C123.011 71.6225 123.088 71.192 123.125 70.7567L123.707 70.6831Z" fill="url(#paint11_linear)"/>
<path d="M131.525 60.0873C134.005 59.6957 137.203 59.0364 139.536 58.6683C140.244 58.5578 141.919 58.4675 142.63 58.4106C143.166 58.3704 144.688 54.1803 144.907 53.6616C146.21 50.5625 147.541 47.4768 148.863 44.3878C148.904 44.2941 148.954 44.2004 148.988 44.1033C149.364 42.9788 149.157 42.7914 148.049 42.8382C145.521 42.9487 143.664 44.371 142.098 46.2787C139.592 49.3342 137.2 52.4768 134.757 55.5826C134.735 55.6395 131.634 59.8865 131.525 60.0873Z" fill="#5D3EC5"/>
<path d="M131.525 60.0873C134.005 59.6957 137.203 59.0364 139.536 58.6683C140.244 58.5578 141.919 58.4675 142.63 58.4106C143.166 58.3704 144.688 54.1803 144.907 53.6616C146.21 50.5625 147.541 47.4768 148.863 44.3878C148.904 44.2941 148.954 44.2004 148.988 44.1033C149.364 42.9788 149.157 42.7914 148.049 42.8382C145.521 42.9487 143.664 44.371 142.098 46.2787C139.592 49.3342 137.2 52.4768 134.757 55.5826C134.735 55.6395 131.634 59.8865 131.525 60.0873Z" fill="url(#paint12_linear)"/>
<path d="M141.252 68.2567C143.232 67.922 145.08 67.6275 146.915 67.2828C151.779 66.3725 156.624 65.2982 161.14 63.1061C162.498 62.4181 163.783 61.5766 164.974 60.596C166.176 59.6355 166.615 58.3068 166.32 56.6134C165.694 53.0424 165.227 49.4413 164.701 45.8536C164.51 44.5518 163.856 44.0799 162.669 44.4313C161.66 44.7325 160.893 45.3416 160.542 46.4393C159.969 48.2365 159.421 50.0438 158.832 51.8309C158.618 52.5019 158.357 53.1543 158.049 53.7821C157.872 54.1301 157.619 54.4273 157.312 54.6482C157.004 54.8691 156.651 55.0071 156.283 55.0505C143.492 57.2571 130.701 59.4704 117.91 61.6904C114.666 62.2493 111.706 63.424 109.345 65.9608C108.183 67.2092 107.249 68.6382 106.92 70.402C106.692 71.6369 106.92 72.0552 108.098 72.1188C109.819 72.2544 111.548 72.2544 113.269 72.1188C117.829 71.6436 122.376 71.0412 126.927 70.4455C127.552 70.3398 128.19 70.4905 128.715 70.8671C135.173 75.2179 141.657 79.5419 148.118 83.8926C150.213 85.305 152.437 85.3451 154.748 84.7528C155.158 84.649 155.283 84.3511 155.061 83.9864C154.821 83.5581 154.539 83.1586 154.219 82.7949C150.091 78.1786 145.963 73.5646 141.835 68.9528C141.666 68.7654 141.509 68.5646 141.252 68.2567Z" fill="#5D3EC5"/>
<path d="M164.967 60.596C163.782 61.5799 162.498 62.4206 161.14 63.1027C156.608 65.3015 151.776 66.3724 146.918 67.2761C145.083 67.6107 143.235 67.9186 141.255 68.25C141.515 68.5579 141.672 68.7654 141.841 68.9461C145.969 73.5679 150.097 78.173 154.212 82.8083C154.534 83.1677 154.817 83.5639 155.058 83.9897C155.268 84.3511 155.136 84.659 154.745 84.7561C152.44 85.3551 150.213 85.3116 148.117 83.8926C141.656 79.5418 135.173 75.2379 128.7 70.8671C128.173 70.4982 127.537 70.3493 126.914 70.4488C122.358 71.0344 117.813 71.6335 113.256 72.1054C111.535 72.2443 109.807 72.2443 108.085 72.1054C106.902 72.0385 106.679 71.6201 106.902 70.3952C107.24 68.6148 108.154 67.1957 109.322 65.9541C111.693 63.4106 114.647 62.2392 117.891 61.6837C130.693 59.4704 143.485 57.2526 156.27 55.0304C156.638 54.992 156.991 54.8563 157.298 54.6354C157.605 54.4145 157.855 54.1155 158.027 53.7653C158.346 53.1409 158.616 52.4894 158.835 51.8175C159.421 50.0203 159.969 48.2264 160.542 46.4192C160.893 45.3315 161.66 44.7191 162.662 44.4112C163.862 44.0765 164.513 44.535 164.695 45.8302C165.164 49.0163 165.594 52.2158 166.126 55.4052C166.179 55.8068 166.258 56.1984 166.323 56.6C166.608 58.3001 166.192 59.6388 164.967 60.596Z" fill="url(#paint13_linear)"/>
<path d="M154.732 84.7561C152.427 85.3552 150.2 85.3117 148.105 83.8927C141.644 79.5419 135.161 75.238 128.687 70.8672C128.16 70.4982 127.525 70.3493 126.902 70.4488C122.345 71.0345 117.801 71.6336 113.244 72.1055C111.523 72.2444 109.794 72.2444 108.073 72.1055C106.889 72.0385 106.667 71.6202 106.889 70.3953L122.843 68.3872C125.299 68.0811 127.786 68.5329 130.009 69.6891L130.889 70.1443C130.889 70.1443 149.223 83.3371 151.791 83.5881C154.359 83.8391 155.045 83.963 155.045 83.963C155.268 84.3512 155.136 84.6591 154.732 84.7561Z" fill="url(#paint14_linear)"/>
<path d="M164.967 60.596C163.782 61.58 162.498 62.4207 161.14 63.1028C156.608 65.3016 151.776 66.3725 146.918 67.2761C145.083 67.6108 143.235 67.9187 141.256 68.25L139.846 66.5398C139.846 66.5398 158.362 62.922 161.4 60.084C164.162 57.4936 165.854 55.7132 166.126 55.422C166.179 55.8236 166.258 56.2152 166.323 56.6168C166.608 58.3002 166.192 59.6389 164.967 60.596Z" fill="url(#paint15_linear)"/>
<path d="M124.274 74.6757C124.888 74.6757 125.386 74.0599 125.386 73.3002C125.386 72.5405 124.888 71.9247 124.274 71.9247C123.66 71.9247 123.162 72.5405 123.162 73.3002C123.162 74.0599 123.66 74.6757 124.274 74.6757Z" fill="#5D3EC5"/>
<path d="M124.277 74.6757C124.892 74.6757 125.389 74.0599 125.389 73.3002C125.389 72.5405 124.892 71.9247 124.277 71.9247C123.663 71.9247 123.166 72.5405 123.166 73.3002C123.166 74.0599 123.663 74.6757 124.277 74.6757Z" fill="url(#paint16_linear)"/>
<path d="M124.6 74.331C124.941 74.331 125.217 73.868 125.217 73.2968C125.217 72.7257 124.941 72.2627 124.6 72.2627C124.259 72.2627 123.983 72.7257 123.983 73.2968C123.983 73.868 124.259 74.331 124.6 74.331Z" fill="url(#paint17_linear)"/>
</g>
<defs>
<linearGradient id="paint0_linear" x1="30.5676" y1="41.6602" x2="30.0705" y2="19.2786" gradientUnits="userSpaceOnUse">
<stop stop-color="white" stop-opacity="0"/>
<stop offset="0.13" stop-color="white" stop-opacity="0.23"/>
<stop offset="0.23" stop-color="white" stop-opacity="0.41"/>
<stop offset="0.35" stop-color="white" stop-opacity="0.59"/>
<stop offset="0.48" stop-color="white" stop-opacity="0.74"/>
<stop offset="0.6" stop-color="white" stop-opacity="0.85"/>
<stop offset="0.72" stop-color="white" stop-opacity="0.93"/>
<stop offset="0.84" stop-color="white" stop-opacity="0.98"/>
<stop offset="0.95" stop-color="white"/>
</linearGradient>
<linearGradient id="paint1_linear" x1="198.948" y1="211.079" x2="-79.6143" y2="-93.3434" gradientUnits="userSpaceOnUse">
<stop stop-color="#010101" stop-opacity="0"/>
<stop offset="0.95" stop-color="#010101"/>
</linearGradient>
<linearGradient id="paint2_linear" x1="43066.2" y1="54816.3" x2="42150.9" y2="-3934.7" gradientUnits="userSpaceOnUse">
<stop stop-color="white" stop-opacity="0"/>
<stop offset="0.13" stop-color="white" stop-opacity="0.23"/>
<stop offset="0.23" stop-color="white" stop-opacity="0.41"/>
<stop offset="0.35" stop-color="white" stop-opacity="0.59"/>
<stop offset="0.48" stop-color="white" stop-opacity="0.74"/>
<stop offset="0.6" stop-color="white" stop-opacity="0.85"/>
<stop offset="0.72" stop-color="white" stop-opacity="0.93"/>
<stop offset="0.84" stop-color="white" stop-opacity="0.98"/>
<stop offset="0.95" stop-color="white"/>
</linearGradient>
<linearGradient id="paint3_linear" x1="41796.5" y1="908.769" x2="41830.3" y2="4753.8" gradientUnits="userSpaceOnUse">
<stop stop-color="#010101" stop-opacity="0"/>
<stop offset="0.95" stop-color="#010101"/>
</linearGradient>
<linearGradient id="paint4_linear" x1="2808.25" y1="2262.93" x2="2804.73" y2="2982.66" gradientUnits="userSpaceOnUse">
<stop stop-color="#010101" stop-opacity="0"/>
<stop offset="0.95" stop-color="#010101"/>
</linearGradient>
<linearGradient id="paint5_linear" x1="30324.5" y1="9620.38" x2="47150.3" y2="60199.7" gradientUnits="userSpaceOnUse">
<stop stop-color="white" stop-opacity="0"/>
<stop offset="0.13" stop-color="white" stop-opacity="0.23"/>
<stop offset="0.23" stop-color="white" stop-opacity="0.41"/>
<stop offset="0.35" stop-color="white" stop-opacity="0.59"/>
<stop offset="0.48" stop-color="white" stop-opacity="0.74"/>
<stop offset="0.6" stop-color="white" stop-opacity="0.85"/>
<stop offset="0.72" stop-color="white" stop-opacity="0.93"/>
<stop offset="0.84" stop-color="white" stop-opacity="0.98"/>
<stop offset="0.95" stop-color="white"/>
</linearGradient>
<linearGradient id="paint6_linear" x1="22359.5" y1="4790.59" x2="54123.5" y2="-12161" gradientUnits="userSpaceOnUse">
<stop stop-color="#010101" stop-opacity="0"/>
<stop offset="0.95" stop-color="#010101"/>
</linearGradient>
<linearGradient id="paint7_linear" x1="3713.24" y1="1079.54" x2="3714.92" y2="1739.35" gradientUnits="userSpaceOnUse">
<stop stop-color="white" stop-opacity="0"/>
<stop offset="0.13" stop-color="white" stop-opacity="0.23"/>
<stop offset="0.23" stop-color="white" stop-opacity="0.41"/>
<stop offset="0.35" stop-color="white" stop-opacity="0.59"/>
<stop offset="0.48" stop-color="white" stop-opacity="0.74"/>
<stop offset="0.6" stop-color="white" stop-opacity="0.85"/>
<stop offset="0.72" stop-color="white" stop-opacity="0.93"/>
<stop offset="0.84" stop-color="white" stop-opacity="0.98"/>
<stop offset="0.95" stop-color="white"/>
</linearGradient>
<linearGradient id="paint8_linear" x1="3704.74" y1="1087.27" x2="3706.42" y2="1747.08" gradientUnits="userSpaceOnUse">
<stop stop-color="white" stop-opacity="0"/>
<stop offset="0.13" stop-color="white" stop-opacity="0.23"/>
<stop offset="0.23" stop-color="white" stop-opacity="0.41"/>
<stop offset="0.35" stop-color="white" stop-opacity="0.59"/>
<stop offset="0.48" stop-color="white" stop-opacity="0.74"/>
<stop offset="0.6" stop-color="white" stop-opacity="0.85"/>
<stop offset="0.72" stop-color="white" stop-opacity="0.93"/>
<stop offset="0.84" stop-color="white" stop-opacity="0.98"/>
<stop offset="0.95" stop-color="white"/>
</linearGradient>
<linearGradient id="paint9_linear" x1="1007.86" y1="650.871" x2="980.317" y2="667.819" gradientUnits="userSpaceOnUse">
<stop stop-color="#010101" stop-opacity="0"/>
<stop offset="0.95" stop-color="#010101"/>
</linearGradient>
<linearGradient id="paint10_linear" x1="611.897" y1="511.749" x2="600.576" y2="516.885" gradientUnits="userSpaceOnUse">
<stop stop-color="#010101" stop-opacity="0"/>
<stop offset="0.95" stop-color="#010101"/>
</linearGradient>
<linearGradient id="paint11_linear" x1="900.612" y1="724.765" x2="904.656" y2="724.48" gradientUnits="userSpaceOnUse">
<stop stop-color="#010101" stop-opacity="0"/>
<stop offset="0.95" stop-color="#010101"/>
</linearGradient>
<linearGradient id="paint12_linear" x1="7929.42" y1="3814.54" x2="8157.78" y2="3164.81" gradientUnits="userSpaceOnUse">
<stop stop-color="white" stop-opacity="0"/>
<stop offset="0.13" stop-color="white" stop-opacity="0.23"/>
<stop offset="0.23" stop-color="white" stop-opacity="0.41"/>
<stop offset="0.35" stop-color="white" stop-opacity="0.59"/>
<stop offset="0.48" stop-color="white" stop-opacity="0.74"/>
<stop offset="0.6" stop-color="white" stop-opacity="0.85"/>
<stop offset="0.72" stop-color="white" stop-opacity="0.93"/>
<stop offset="0.84" stop-color="white" stop-opacity="0.98"/>
<stop offset="0.95" stop-color="white"/>
</linearGradient>
<linearGradient id="paint13_linear" x1="25070.3" y1="11552.4" x2="25611.2" y2="9561.15" gradientUnits="userSpaceOnUse">
<stop stop-color="white" stop-opacity="0"/>
<stop offset="0.13" stop-color="white" stop-opacity="0.23"/>
<stop offset="0.23" stop-color="white" stop-opacity="0.41"/>
<stop offset="0.35" stop-color="white" stop-opacity="0.59"/>
<stop offset="0.48" stop-color="white" stop-opacity="0.74"/>
<stop offset="0.6" stop-color="white" stop-opacity="0.85"/>
<stop offset="0.72" stop-color="white" stop-opacity="0.93"/>
<stop offset="0.84" stop-color="white" stop-opacity="0.98"/>
<stop offset="0.95" stop-color="white"/>
</linearGradient>
<linearGradient id="paint14_linear" x1="21373.7" y1="3741" x2="20342.4" y2="12001.7" gradientUnits="userSpaceOnUse">
<stop stop-color="#010101" stop-opacity="0"/>
<stop offset="0.95" stop-color="#010101"/>
</linearGradient>
<linearGradient id="paint15_linear" x1="13173.3" y1="2774.58" x2="13302.5" y2="4532.25" gradientUnits="userSpaceOnUse">
<stop stop-color="#010101" stop-opacity="0"/>
<stop offset="0.95" stop-color="#010101"/>
</linearGradient>
<linearGradient id="paint16_linear" x1="1023.28" y1="657.755" x2="995.741" y2="674.679" gradientUnits="userSpaceOnUse">
<stop stop-color="#010101" stop-opacity="0"/>
<stop offset="0.95" stop-color="#010101"/>
</linearGradient>
<linearGradient id="paint17_linear" x1="621.285" y1="517.09" x2="609.966" y2="522.242" gradientUnits="userSpaceOnUse">
<stop stop-color="#010101" stop-opacity="0"/>
<stop offset="0.95" stop-color="#010101"/>
</linearGradient>
<clipPath id="clip0">
<rect width="177" height="144" fill="white"/>
</clipPath>
</defs>
</svg>
