<svg width="672" height="135" viewBox="0 0 672 135" fill="none" xmlns="http://www.w3.org/2000/svg">
<g opacity="0.8">
<path opacity="0.8" d="M18.668 67.3923H658.039" stroke="#3F3D56" stroke-width="3" stroke-miterlimit="10"/>
<path opacity="0.8" d="M75.4692 67.3831C75.4692 67.3831 106.044 71.2439 90.2092 41.4086C74.3747 11.5732 133.171 17.2202 133.171 17.2202" stroke="#3F3D56" stroke-width="3" stroke-miterlimit="10"/>
<path opacity="0.8" d="M279.097 67.383C279.097 67.383 309.671 63.5315 293.837 93.3669C278.002 123.202 336.798 117.555 336.798 117.555" stroke="#3F3D56" stroke-width="3" stroke-miterlimit="10"/>
<path opacity="0.8" d="M572.289 67.383C572.289 67.383 541.705 63.5315 557.549 93.3669C573.394 123.202 514.588 117.555 514.588 117.555" stroke="#3F3D56" stroke-width="3" stroke-miterlimit="10"/>
<path opacity="0.8" d="M514.588 117.546H345.882" stroke="#3F3D56" stroke-width="3" stroke-miterlimit="10"/>
<path opacity="0.8" d="M18.6678 84.3707C28.9778 84.3707 37.3357 76.7693 37.3357 67.3924C37.3357 58.0155 28.9778 50.4141 18.6678 50.4141C8.35788 50.4141 0 58.0155 0 67.3924C0 76.7693 8.35788 84.3707 18.6678 84.3707Z" fill="white"/>
<path opacity="0.8" d="M133.488 33.9567C143.798 33.9567 152.155 26.3552 152.155 16.9783C152.155 7.60146 143.798 0 133.488 0C123.178 0 114.82 7.60146 114.82 16.9783C114.82 26.3552 123.178 33.9567 133.488 33.9567Z" fill="#3ACC97"/>
<path opacity="0.8" d="M133.488 84.3707C143.798 84.3707 152.155 76.7693 152.155 67.3924C152.155 58.0155 143.798 50.4141 133.488 50.4141C123.178 50.4141 114.82 58.0155 114.82 67.3924C114.82 76.7693 123.178 84.3707 133.488 84.3707Z" fill="white"/>
<path opacity="0.8" d="M207.586 84.3707C217.896 84.3707 226.254 76.7693 226.254 67.3924C226.254 58.0155 217.896 50.4141 207.586 50.4141C197.276 50.4141 188.918 58.0155 188.918 67.3924C188.918 76.7693 197.276 84.3707 207.586 84.3707Z" fill="white"/>
<path opacity="0.8" d="M337.105 134.273C347.415 134.273 355.773 126.672 355.773 117.295C355.773 107.918 347.415 100.316 337.105 100.316C326.795 100.316 318.438 107.918 318.438 117.295C318.438 126.672 326.795 134.273 337.105 134.273Z" fill="#FF8832"/>
<path opacity="0.8" d="M434.976 134.273C445.286 134.273 453.644 126.672 453.644 117.295C453.644 107.918 445.286 100.316 434.976 100.316C424.666 100.316 416.308 107.918 416.308 117.295C416.308 126.672 424.666 134.273 434.976 134.273Z" fill="#FF8832"/>
<path opacity="0.8" d="M429.871 84.3707C440.181 84.3707 448.539 76.7693 448.539 67.3924C448.539 58.0155 440.181 50.4141 429.871 50.4141C419.561 50.4141 411.204 58.0155 411.204 67.3924C411.204 76.7693 419.561 84.3707 429.871 84.3707Z" fill="white"/>
<path opacity="0.8" d="M653.312 84.3707C663.622 84.3707 671.98 76.7693 671.98 67.3924C671.98 58.0155 663.622 50.4141 653.312 50.4141C643.002 50.4141 634.645 58.0155 634.645 67.3924C634.645 76.7693 643.002 84.3707 653.312 84.3707Z" fill="white"/>
<path opacity="0.8" d="M561.907 84.3707C572.217 84.3707 580.575 76.7693 580.575 67.3924C580.575 58.0155 572.217 50.4141 561.907 50.4141C551.597 50.4141 543.239 58.0155 543.239 67.3924C543.239 76.7693 551.597 84.3707 561.907 84.3707Z" fill="white"/>
</g>
</svg>
