<svg width="792" height="483" viewBox="0 0 792 483" fill="none" xmlns="http://www.w3.org/2000/svg">
<g clip-path="url(#clip0)">
<path d="M636.025 449.229C630.884 466.24 612.871 476.87 612.871 476.87C612.871 476.87 603.192 459.921 608.333 442.91C613.473 425.9 631.487 415.27 631.487 415.27C631.487 415.27 641.166 432.219 636.025 449.229Z" fill="#3F3D56"/>
<path d="M628.228 445.631C613.83 457.991 612.219 476.86 612.219 476.86C612.219 476.86 633.952 475.689 648.35 463.329C662.749 450.968 664.36 432.099 664.36 432.099C664.36 432.099 642.626 433.27 628.228 445.631Z" fill="#FF8832"/>
<path d="M106.527 384.882H133.642L200.464 362.162C200.464 362.162 247.916 345.332 244.043 377.308C240.169 409.285 233.39 452.201 233.39 452.201C233.39 452.201 212.085 443.786 200.464 446.31C188.842 448.835 196.59 394.98 196.59 394.98C196.59 394.98 101.684 434.529 92.9686 429.481C84.2528 424.432 82.3159 389.089 82.3159 389.089L106.527 384.882Z" fill="#2F2E41"/>
<path opacity="0.1" d="M106.527 384.882H133.642L200.464 362.162C200.464 362.162 247.916 345.332 244.043 377.308C240.169 409.285 233.39 452.201 233.39 452.201C233.39 452.201 212.085 443.786 200.464 446.31C188.842 448.835 196.59 394.98 196.59 394.98C196.59 394.98 101.684 434.529 92.9686 429.481C84.2528 424.432 82.3159 389.089 82.3159 389.089L106.527 384.882Z" fill="black"/>
<path d="M149.248 311.095L182.064 352.064L258.569 407.602C258.569 407.602 329.264 421.907 319.58 432.005C309.896 442.103 250.822 421.907 250.822 421.907C250.822 421.907 162.695 366.369 159.79 362.162C156.885 357.954 124.927 318.404 124.927 318.404L149.248 311.095Z" fill="#A0616A"/>
<path opacity="0.1" d="M149.248 311.095L182.064 352.064L258.569 407.602C258.569 407.602 329.264 421.907 319.58 432.005C309.896 442.103 250.822 421.907 250.822 421.907C250.822 421.907 162.695 366.369 159.79 362.162C156.885 357.954 124.927 318.404 124.927 318.404L149.248 311.095Z" fill="black"/>
<path d="M129.769 278.013L151.074 314.197C151.074 314.197 146.232 331.868 138.485 333.551C130.737 335.234 97.811 311.672 97.811 311.672L129.769 278.013Z" fill="#D0CDE1"/>
<path opacity="0.1" d="M129.769 278.013L151.074 314.197C151.074 314.197 146.232 331.868 138.485 333.551C130.737 335.234 97.811 311.672 97.811 311.672L129.769 278.013Z" fill="black"/>
<path d="M389.684 366.147L395.978 388.705C396.048 388.956 396.037 389.22 395.946 389.466L367.398 466.986C367.285 467.293 367.054 467.557 366.744 467.734C366.434 467.911 366.064 467.99 365.694 467.959C365.325 467.927 364.98 467.786 364.716 467.56C364.451 467.334 364.284 467.036 364.242 466.715L360.293 436.517C360.267 436.316 360.291 436.113 360.362 435.921L386.567 366.043C386.676 365.751 386.892 365.498 387.181 365.323C387.471 365.148 387.818 365.059 388.171 365.071C388.524 365.083 388.862 365.194 389.135 365.389C389.408 365.583 389.601 365.849 389.684 366.147Z" fill="#2F2E41"/>
<path d="M387.37 368.052L393.18 387.406L368.001 458.091L362.19 436.212L387.37 368.052Z" fill="#F2F2F2"/>
<path d="M260.506 473.238C261.474 475.762 361.222 472.396 362.19 471.555C363.034 470.501 363.749 469.373 364.321 468.189C365.231 466.506 366.064 464.823 366.064 464.823L362.19 437.576L263.411 434.529C263.411 434.529 260.941 457.62 260.438 468.189C260.312 470.856 260.312 472.733 260.506 473.238Z" fill="#2F2E41"/>
<path opacity="0.1" d="M349.601 441.262L351.537 464.823H307.958V441.262H349.601Z" fill="black"/>
<path opacity="0.1" d="M293.433 448.834L293.692 448.79L292.464 458.933H268.253V448.834H293.433Z" fill="black"/>
<path opacity="0.1" d="M260.506 473.238C261.474 475.762 361.222 472.396 362.19 471.555C363.034 470.501 363.749 469.373 364.321 468.189H260.438C260.312 470.856 260.312 472.733 260.506 473.238Z" fill="black"/>
<path d="M144.295 266.232C168.363 266.232 187.874 249.278 187.874 228.365C187.874 207.452 168.363 190.498 144.295 190.498C120.227 190.498 100.716 207.452 100.716 228.365C100.716 249.278 120.227 266.232 144.295 266.232Z" fill="#A0616A"/>
<path d="M141.39 262.025C141.39 262.025 126.863 283.903 123.958 295.684C121.053 307.465 80.3791 272.123 80.3791 272.123L75.0527 259.921C75.0527 259.921 113.305 244.354 110.4 231.731C107.495 219.109 141.39 262.025 141.39 262.025Z" fill="#A0616A"/>
<path d="M149.137 327.661L188.843 373.101L283.748 434.529C283.748 434.529 352.506 447.152 337.011 456.408C321.516 465.664 276.969 447.993 276.969 447.993C276.969 447.993 181.095 403.394 160.758 384.882C140.421 366.369 102.653 335.234 102.653 335.234L149.137 327.661Z" fill="#A0616A"/>
<path d="M95.8737 398.345L107.495 414.334L176.851 395.374C192.068 391.214 208.755 392.745 222.253 400.134C234.358 406.76 242.106 417.279 224.674 432.846C189.811 463.981 166.569 447.152 166.569 447.152C166.569 447.152 49.3894 495.116 30.0209 471.555C10.6525 447.993 9.68408 436.212 9.68408 436.212C9.68408 436.212 84.2526 395.821 95.8737 398.345Z" fill="#2F2E41"/>
<path d="M241.138 453.884C241.138 453.884 272.127 471.555 235.327 479.97C198.527 488.385 171.411 476.604 171.411 476.604C171.411 476.604 139.453 476.604 139.453 462.299C139.453 447.993 150.106 446.31 150.106 446.31L183.032 450.518C183.032 450.518 222.738 441.261 241.138 453.884Z" fill="#D0CDE1"/>
<path d="M180.045 218.84C183.011 219.989 185.952 221.348 189.177 221.682C192.402 222.016 196.074 221.037 197.6 218.546C198.424 217.201 198.518 215.618 198.557 214.095C198.673 209.474 198.289 204.478 194.919 200.902C192.774 198.627 189.644 197.192 187.424 194.971C185.833 193.38 184.774 191.452 183.635 189.592C179.317 182.546 172.925 175.774 164.04 173.743C160.331 172.895 156.439 172.936 152.603 172.983L130.23 173.257C126.61 173.302 122.933 173.353 119.468 174.264C112.266 176.156 107.023 181.418 102.221 186.45C98.6285 190.215 95.0264 194.018 92.3301 198.311C88.4644 204.576 86.5097 211.597 86.6523 218.704C86.6223 220.527 86.8932 222.344 87.4566 224.1C88.1157 225.711 88.9323 227.269 89.8974 228.759C94.0931 235.92 96.5843 244.864 91.8592 251.771C100.067 248.858 108.188 245.038 113.603 238.937C116.025 236.208 117.925 233.013 121.153 231.01C124.381 229.007 129.64 228.834 131.711 231.773C132.423 232.962 132.79 234.284 132.779 235.625C132.93 237.831 132.926 240.122 134.003 242.125C135.079 244.127 137.644 245.743 140.092 245.144C144.309 244.112 143.905 238.489 147.152 235.934C149.619 233.995 153.424 234.365 156.592 233.485C160.284 232.459 163.054 229.68 164.633 226.604C165.832 224.266 165.815 218.147 168.085 216.881C170.932 215.293 177.406 217.817 180.045 218.84Z" fill="#2F2E41"/>
<path d="M71.5934 255.929C73.5539 255.475 75.6179 255.479 77.5758 255.943C83.7923 257.393 97.728 261.232 100.716 267.074C104.59 274.647 118.148 286.428 118.148 286.428C118.148 286.428 136.548 302.416 132.674 313.355C128.8 324.295 114.274 336.917 114.274 336.917C114.274 336.917 118.148 389.089 98.7792 402.553C79.4107 416.017 71.6633 406.76 71.6633 419.383C71.6633 432.005 11.6211 471.555 0 447.152C0 447.152 5.81054 401.711 3.8737 385.723C1.96478 369.966 4.75933 271.651 71.5934 255.929Z" fill="#D0CDE1"/>
<path d="M102.653 277.171C102.653 277.171 161.727 315.038 151.074 331.027C151.074 331.027 115.242 346.173 107.495 345.332C99.7475 344.49 69.7264 315.038 61.979 312.514C54.2316 309.989 50.3579 264.549 102.653 277.171Z" fill="#D0CDE1"/>
<path d="M366.583 193.435C393.005 193.435 414.424 174.823 414.424 151.864C414.424 128.906 393.005 110.294 366.583 110.294C340.161 110.294 318.742 128.906 318.742 151.864C318.742 174.823 340.161 193.435 366.583 193.435Z" fill="#F2F2F2"/>
<path d="M761.725 97.8759H493.632V49.1304H761.725V97.8759ZM494.813 96.8497H760.544V50.1566H494.813V96.8497Z" fill="#3F3D56"/>
<path d="M742.238 58.8795H475.326V106.599H742.238V58.8795Z" fill="#FF8832"/>
<path d="M306.598 13.3409C308.881 13.3409 310.732 11.7328 310.732 9.74905C310.732 7.76534 308.881 6.15723 306.598 6.15723C304.316 6.15723 302.465 7.76534 302.465 9.74905C302.465 11.7328 304.316 13.3409 306.598 13.3409Z" fill="#FF8832"/>
<path d="M320.771 13.3409C323.054 13.3409 324.905 11.7328 324.905 9.74905C324.905 7.76534 323.054 6.15723 320.771 6.15723C318.488 6.15723 316.637 7.76534 316.637 9.74905C316.637 11.7328 318.488 13.3409 320.771 13.3409Z" fill="#FF8832"/>
<path d="M334.943 13.3409C337.226 13.3409 339.077 11.7328 339.077 9.74905C339.077 7.76534 337.226 6.15723 334.943 6.15723C332.66 6.15723 330.81 7.76534 330.81 9.74905C330.81 11.7328 332.66 13.3409 334.943 13.3409Z" fill="#FF8832"/>
<path d="M792 281.185H294.788V0H792V281.185ZM295.969 280.159H790.819V1.02622H295.969V280.159Z" fill="#3F3D56"/>
<path d="M791.409 15.5652H295.378V16.5914H791.409V15.5652Z" fill="#3F3D56"/>
<path d="M307.78 12.3146C306.845 12.3146 305.932 12.0739 305.155 11.6228C304.378 11.1718 303.773 10.5307 303.415 9.78062C303.058 9.03055 302.964 8.20519 303.146 7.40892C303.329 6.61265 303.779 5.88123 304.439 5.30715C305.1 4.73307 305.942 4.34212 306.858 4.18373C307.775 4.02535 308.724 4.10664 309.588 4.41733C310.451 4.72802 311.189 5.25415 311.708 5.9292C312.227 6.60424 312.504 7.39788 312.504 8.20975C312.502 9.29804 312.004 10.3414 311.119 11.111C310.233 11.8805 309.032 12.3134 307.78 12.3146ZM307.78 5.13108C307.079 5.13108 306.394 5.31164 305.811 5.64993C305.229 5.98822 304.775 6.46904 304.506 7.0316C304.238 7.59415 304.168 8.21316 304.305 8.81037C304.441 9.40757 304.779 9.95613 305.274 10.3867C305.77 10.8173 306.401 11.1105 307.089 11.2293C307.776 11.3481 308.488 11.2871 309.136 11.0541C309.783 10.821 310.336 10.4264 310.726 9.92016C311.115 9.41388 311.323 8.81865 311.323 8.20975C311.322 7.39352 310.948 6.61101 310.284 6.03385C309.62 5.45669 308.719 5.13203 307.78 5.13108V5.13108Z" fill="#3F3D56"/>
<path d="M321.952 12.3146C321.017 12.3146 320.104 12.0739 319.327 11.6228C318.55 11.1718 317.945 10.5307 317.587 9.78062C317.23 9.03055 317.136 8.20519 317.318 7.40892C317.501 6.61265 317.951 5.88123 318.611 5.30715C319.272 4.73307 320.114 4.34212 321.03 4.18373C321.946 4.02535 322.896 4.10664 323.759 4.41733C324.623 4.72802 325.36 5.25415 325.88 5.9292C326.399 6.60424 326.676 7.39788 326.676 8.20975C326.674 9.29804 326.176 10.3414 325.29 11.111C324.405 11.8805 323.204 12.3134 321.952 12.3146V12.3146ZM321.952 5.13108C321.251 5.13108 320.566 5.31164 319.983 5.64993C319.401 5.98822 318.946 6.46904 318.678 7.0316C318.41 7.59415 318.34 8.21316 318.477 8.81037C318.613 9.40757 318.951 9.95613 319.446 10.3867C319.942 10.8173 320.573 11.1105 321.26 11.2293C321.948 11.3481 322.66 11.2871 323.307 11.0541C323.955 10.821 324.508 10.4264 324.898 9.92016C325.287 9.41388 325.495 8.81865 325.495 8.20975C325.494 7.39352 325.12 6.61101 324.456 6.03385C323.792 5.45669 322.891 5.13203 321.952 5.13108V5.13108Z" fill="#3F3D56"/>
<path d="M336.124 12.3146C335.19 12.3146 334.276 12.0739 333.499 11.6228C332.723 11.1718 332.117 10.5307 331.76 9.78063C331.402 9.03056 331.308 8.2052 331.491 7.40893C331.673 6.61266 332.123 5.88124 332.784 5.30716C333.444 4.73308 334.286 4.34213 335.202 4.18374C336.119 4.02535 337.069 4.10664 337.932 4.41732C338.795 4.72801 339.533 5.25414 340.052 5.92919C340.571 6.60423 340.848 7.39787 340.848 8.20974C340.847 9.29804 340.349 10.3414 339.463 11.1109C338.577 11.8805 337.377 12.3134 336.124 12.3146V12.3146ZM336.124 5.13108C335.423 5.13108 334.738 5.31164 334.156 5.64993C333.573 5.98821 333.119 6.46904 332.851 7.03159C332.582 7.59414 332.512 8.21316 332.649 8.81036C332.786 9.40756 333.123 9.95613 333.619 10.3867C334.114 10.8173 334.746 11.1105 335.433 11.2293C336.12 11.348 336.832 11.2871 337.48 11.0541C338.127 10.821 338.681 10.4264 339.07 9.92016C339.459 9.41388 339.667 8.81865 339.667 8.20975C339.666 7.39352 339.292 6.61101 338.628 6.03385C337.964 5.4567 337.063 5.13203 336.124 5.13108V5.13108Z" fill="#3F3D56"/>
<path d="M451.703 16.0782H450.522V281.07H451.703V16.0782Z" fill="#3F3D56"/>
<path d="M593.724 146.365H506.918V156.627H593.724V146.365Z" fill="#F2F2F2"/>
<path d="M730.132 146.365H643.327V156.627H730.132V146.365Z" fill="#F2F2F2"/>
<path d="M599.038 152.009H511.052V140.721H599.038V152.009ZM512.233 150.983H597.857V141.747H512.233V150.983Z" fill="#3F3D56"/>
<path d="M593.724 225.897H506.918V236.159H593.724V225.897Z" fill="#F2F2F2"/>
<path d="M599.038 231.541H511.052V220.253H599.038V231.541ZM512.233 230.515H597.857V221.279H512.233V230.515Z" fill="#3F3D56"/>
<path d="M730.427 185.105H507.213V195.367H730.427V185.105Z" fill="#F2F2F2"/>
<path d="M735.742 191.775H511.347V180.487H735.742V191.775ZM512.528 190.749H734.561V181.513H512.528V190.749Z" fill="#3F3D56"/>
<path d="M735.447 152.009H647.46V140.721H735.447V152.009ZM648.641 150.983H734.266V141.747H648.641V150.983Z" fill="#3F3D56"/>
<path d="M374.679 182.562C365.071 182.562 355.68 180.087 347.691 175.449C339.703 170.811 333.476 164.218 329.8 156.506C326.123 148.793 325.161 140.306 327.035 132.118C328.91 123.93 333.536 116.409 340.33 110.506C347.124 104.603 355.779 100.583 365.202 98.9539C374.625 97.3252 384.392 98.1611 393.269 101.356C402.145 104.551 409.732 109.961 415.069 116.902C420.407 123.843 423.256 132.004 423.256 140.353C423.242 151.543 418.119 162.272 409.012 170.185C399.905 178.099 387.558 182.55 374.679 182.562ZM374.679 99.4219C365.363 99.4219 356.255 101.822 348.509 106.32C340.763 110.818 334.725 117.21 331.16 124.689C327.594 132.168 326.662 140.398 328.479 148.338C330.297 156.278 334.783 163.571 341.371 169.295C347.959 175.019 356.352 178.918 365.489 180.497C374.627 182.076 384.098 181.266 392.705 178.168C401.313 175.07 408.67 169.823 413.845 163.092C419.021 156.361 421.784 148.448 421.784 140.353C421.77 129.501 416.803 119.097 407.972 111.424C399.141 103.751 387.168 99.4342 374.679 99.4219Z" fill="#3F3D56"/>
<path d="M758.879 476.112H550.587V477.391H758.879V476.112Z" fill="#3F3D56"/>
</g>
<defs>
<clipPath id="clip0">
<rect width="792" height="483" fill="white"/>
</clipPath>
</defs>
</svg>
