<svg width="153" height="139" viewBox="0 0 153 139" fill="none" xmlns="http://www.w3.org/2000/svg">
<g clip-path="url(#clip0)">
<path opacity="0.18" d="M148.843 132.614C143.922 133.08 139 133.476 134.078 133.825C134.133 133.923 134.2 134.016 134.277 134.104C134.789 134.733 135.842 134.849 136.724 135.152C137.606 135.454 138.402 136.316 137.833 136.921C137.549 137.224 137.037 137.317 136.581 137.363L131.489 138.062C125.287 138.9 118.743 139.738 112.882 137.899C110.464 137.131 110.293 135.99 111.118 135.035C79.6238 136.153 47.9871 135.291 16.4357 134.453C13.8751 134.453 11.0017 133.895 10.3188 131.776C26.564 125.793 42.3254 125.77 59.9362 125.374L121.816 124.024C122.868 124.001 124.006 124.001 124.917 124.443C125.827 124.885 126.339 125.77 127.107 126.422C129.383 128.354 133.196 127.958 136.468 127.749C141.244 127.464 146.041 127.962 150.579 129.215C151.205 129.378 151.888 129.611 152.201 130.077C153.054 131.38 150.636 132.451 148.843 132.614Z" fill="#1D2741"/>
<path opacity="0.18" d="M66.1085 0.477978C57.801 1.89806 50.4893 5.94877 44.1733 10.5815C37.8573 15.2142 32.2242 20.4755 25.766 24.9918C15.7799 31.9991 2.97725 38.2846 0.445171 48.8537C-1.5748 57.3277 3.88766 65.8016 4.14371 74.4384C4.28596 80.9801 1.46938 87.3122 0.871926 93.8306C0.274469 100.256 2.06684 107.054 7.21635 111.919C14.5565 118.857 27.1316 120.486 38.2556 119.183C49.3797 117.879 59.8494 114.154 70.8028 112.175C84.0038 109.801 97.7453 109.987 111.202 111.174C119.424 111.896 128.045 112.943 135.783 110.522C142.668 108.381 148.102 103.585 150.72 97.9512C153.337 92.3174 153.252 85.962 151.004 80.2351C147.903 72.2967 141.047 65.7317 136.665 58.2123C132.938 51.8103 131.089 44.8263 129.041 37.9354C127.675 33.3726 126.139 28.6467 122.355 25.1082C118.059 21.0342 111.544 19.1485 105.768 16.5644C91.7991 10.3254 84.3452 -2.64154 66.1085 0.477978Z" fill="#5D3EC5"/>
<path d="M34.0464 8.50879H83.3792V133.01H34.0464C31.662 133.01 29.3753 132.235 27.6893 130.855C26.0033 129.476 25.0561 127.605 25.0561 125.654V15.8653C25.0561 13.9142 26.0033 12.0431 27.6893 10.6634C29.3753 9.28384 31.662 8.50879 34.0464 8.50879Z" fill="#5D3EC5"/>
<path d="M34.0464 8.50879H83.3792V133.01H34.0464C31.662 133.01 29.3753 132.235 27.6893 130.855C26.0033 129.476 25.0561 127.605 25.0561 125.654V15.8653C25.0561 13.9142 26.0033 12.0431 27.6893 10.6634C29.3753 9.28384 31.662 8.50879 34.0464 8.50879Z" fill="url(#paint0_linear)"/>
<path d="M39.5091 8.50879H104.518C107.332 8.50879 110.032 9.42365 112.022 11.0521C114.012 12.6806 115.13 14.8892 115.13 17.1922V124.327C115.13 126.63 114.012 128.838 112.022 130.467C110.032 132.095 107.332 133.01 104.518 133.01H39.5091C36.6946 133.01 33.9954 132.095 32.0053 130.467C30.0151 128.838 28.8971 126.63 28.8971 124.327V17.1922C28.8971 14.8892 30.0151 12.6806 32.0053 11.0521C33.9954 9.42365 36.6946 8.50879 39.5091 8.50879Z" fill="#5D3EC5"/>
<path d="M111.346 15.9817V119.531C111.339 120.696 110.77 121.812 109.763 122.635C108.756 123.459 107.393 123.925 105.969 123.931H38.058C36.6359 123.927 35.2738 123.462 34.2709 122.637C33.268 121.812 32.7063 120.695 32.7094 119.531V15.9817C32.7063 14.818 33.268 13.701 34.2709 12.876C35.2738 12.051 36.6359 11.5855 38.058 11.5818H51.4866V12.9553C51.4866 14.1284 52.0561 15.2535 53.0698 16.083C54.0836 16.9125 55.4585 17.3785 56.8921 17.3785H87.021C88.4547 17.3785 89.8296 16.9125 90.8433 16.083C91.8571 15.2535 92.4266 14.1284 92.4266 12.9553V11.5818H105.969C106.675 11.5812 107.375 11.6946 108.028 11.9155C108.68 12.1364 109.273 12.4604 109.773 12.8691C110.272 13.2778 110.668 13.7631 110.938 14.2972C111.208 14.8313 111.347 15.4037 111.346 15.9817Z" fill="#5D3EC5"/>
<path d="M64.2322 11.9542H79.7945C79.8882 11.9536 79.981 11.9683 80.0676 11.9973C80.1543 12.0263 80.233 12.0692 80.2992 12.1233C80.3654 12.1775 80.4177 12.2419 80.4532 12.3128C80.4887 12.3837 80.5066 12.4596 80.5058 12.5362V12.6526C80.5066 12.7292 80.4887 12.8052 80.4532 12.8761C80.4177 12.947 80.3654 13.0114 80.2992 13.0656C80.233 13.1197 80.1543 13.1626 80.0676 13.1916C79.981 13.2206 79.8882 13.2353 79.7945 13.2346H64.2322C64.1386 13.2353 64.0458 13.2206 63.9591 13.1916C63.8725 13.1626 63.7938 13.1197 63.7276 13.0656C63.6614 13.0114 63.609 12.947 63.5736 12.8761C63.5381 12.8052 63.5202 12.7292 63.521 12.6526V12.5362C63.5239 12.3826 63.5998 12.236 63.7325 12.1274C63.8653 12.0187 64.0445 11.9566 64.2322 11.9542Z" fill="url(#paint1_linear)"/>
<path d="M105.457 11.5818V105.191C105.454 107.295 104.431 109.313 102.612 110.801C100.793 112.289 98.3274 113.127 95.7553 113.129H32.7094V15.9817C32.7063 14.818 33.268 13.701 34.2709 12.876C35.2738 12.051 36.6359 11.5855 38.058 11.5818H51.4866V12.9553C51.4866 14.1284 52.0561 15.2535 53.0698 16.083C54.0836 16.9125 55.4585 17.3785 56.8921 17.3785H87.021C88.4547 17.3785 89.8296 16.9125 90.8433 16.083C91.8571 15.2535 92.4266 14.1284 92.4266 12.9553V11.5818H105.457Z" fill="#EBEBF0"/>
<path d="M48.2148 52.8572H128.046C129.427 52.8578 130.751 53.3068 131.727 54.1057C132.703 54.9045 133.252 55.9877 133.253 57.1174V73.2039C133.252 74.3336 132.703 75.4168 131.727 76.2156C130.751 77.0144 129.427 77.4635 128.046 77.4641H48.2148C46.8342 77.4635 45.5103 77.0144 44.5341 76.2156C43.5579 75.4168 43.0091 74.3336 43.0084 73.2039V57.1174C43.0091 55.9877 43.5579 54.9045 44.5341 54.1057C45.5103 53.3068 46.8342 52.8578 48.2148 52.8572Z" fill="#5D3EC5"/>
<path d="M48.2148 52.8572H128.046C129.427 52.8578 130.751 53.3068 131.727 54.1057C132.703 54.9045 133.252 55.9877 133.253 57.1174V73.2039C133.252 74.3336 132.703 75.4168 131.727 76.2156C130.751 77.0144 129.427 77.4635 128.046 77.4641H48.2148C46.8342 77.4635 45.5103 77.0144 44.5341 76.2156C43.5579 75.4168 43.0091 74.3336 43.0084 73.2039V57.1174C43.0091 55.9877 43.5579 54.9045 44.5341 54.1057C45.5103 53.3068 46.8342 52.8578 48.2148 52.8572Z" fill="url(#paint2_linear)"/>
<path d="M49.7795 51.3207H129.611C130.992 51.3213 132.316 51.7703 133.292 52.5692C134.268 53.368 134.817 54.4512 134.818 55.5809V71.6674C134.817 72.7971 134.268 73.8803 133.292 74.6791C132.316 75.4779 130.992 75.927 129.611 75.9276H49.7795C48.3989 75.927 47.0751 75.4779 46.0989 74.6791C45.1226 73.8803 44.5739 72.7971 44.5731 71.6674V55.5809C44.5739 54.4512 45.1226 53.368 46.0989 52.5692C47.0751 51.7703 48.3989 51.3213 49.7795 51.3207Z" fill="#5D3EC5"/>
<path d="M54.2178 23.9435H40.7323V34.9782H54.2178V23.9435Z" fill="#5D3EC5"/>
<path d="M52.7384 55.837H66.3946C67.1114 55.837 67.7989 56.07 68.3057 56.4847C68.8126 56.8995 69.0974 57.462 69.0974 58.0486V69.2229C69.0974 69.5134 69.0275 69.801 68.8916 70.0693C68.7558 70.3376 68.5567 70.5814 68.3057 70.7868C68.0548 70.9921 67.7568 71.155 67.4289 71.2662C67.101 71.3773 66.7495 71.4345 66.3946 71.4345H52.7384C52.3835 71.4345 52.032 71.3773 51.7041 71.2662C51.3762 71.155 51.0783 70.9921 50.8273 70.7868C50.5763 70.5814 50.3772 70.3376 50.2414 70.0693C50.1056 69.801 50.0357 69.5134 50.0357 69.2229V58.0486C50.033 57.7575 50.1011 57.469 50.236 57.1997C50.3709 56.9304 50.5699 56.6857 50.8214 56.4799C51.0729 56.2741 51.3719 56.1113 51.701 56.0009C52.0301 55.8905 52.3828 55.8348 52.7384 55.837Z" fill="#EBEBF0"/>
<path d="M54.2178 37.6321H40.7323V48.6668H54.2178V37.6321Z" fill="#5D3EC5"/>
<path d="M54.2178 81.1655H40.7323V92.2002H54.2178V81.1655Z" fill="#5D3EC5"/>
<path d="M54.2178 94.8542H40.7323V105.889H54.2178V94.8542Z" fill="#5D3EC5"/>
<path opacity="0.38" d="M69.0689 67.151V69.2229C69.0689 69.5134 68.9989 69.801 68.8631 70.0693C68.7273 70.3376 68.5282 70.5814 68.2772 70.7868C68.0262 70.9921 67.7283 71.155 67.4004 71.2662C67.0725 71.3773 66.721 71.4345 66.3661 71.4345H52.7099C52.355 71.4345 52.0035 71.3773 51.6756 71.2662C51.3477 71.155 51.0497 70.9921 50.7988 70.7868C50.5478 70.5814 50.3487 70.3376 50.2129 70.0693C50.0771 69.801 50.0071 69.5134 50.0071 69.2229V67.151C52.2805 65.9178 54.852 65.0999 57.5465 64.7532C56.7645 64.3947 56.1505 63.8336 55.801 63.1582C55.4515 62.4829 55.3864 61.7315 55.616 61.0226C55.8455 60.3136 56.3567 59.6873 57.069 59.2421C57.7813 58.7969 58.6543 58.5582 59.5506 58.5636C60.4469 58.5689 61.3156 58.818 62.0199 59.2716C62.7242 59.7253 63.2241 60.3577 63.441 61.0693C63.6579 61.7809 63.5794 62.5314 63.2179 63.2025C62.8564 63.8737 62.2324 64.4274 61.4442 64.7765C65.4841 65.3119 69.0689 67.151 69.0689 67.151Z" fill="#5D3EC5"/>
<path d="M128.075 58.5607H76.5797C76.3533 58.5607 76.1362 58.4872 75.9762 58.3562C75.8161 58.2252 75.7262 58.0476 75.7262 57.8623C75.7262 57.6771 75.8161 57.4995 75.9762 57.3685C76.1362 57.2375 76.3533 57.1639 76.5797 57.1639H128.075C128.301 57.1639 128.518 57.2375 128.678 57.3685C128.838 57.4995 128.928 57.6771 128.928 57.8623C128.928 58.0476 128.838 58.2252 128.678 58.3562C128.518 58.4872 128.301 58.5607 128.075 58.5607Z" fill="#EBEBF0"/>
<path d="M59.2535 26.8302H107.505C107.716 26.8302 107.919 26.8989 108.068 27.0211C108.218 27.1434 108.302 27.3092 108.302 27.482C108.302 27.6549 108.218 27.8207 108.068 27.943C107.919 28.0652 107.716 28.1339 107.505 28.1339H59.2535C59.1488 28.1339 59.0453 28.117 58.9486 28.0843C58.852 28.0515 58.7641 28.0035 58.6902 27.943C58.6162 27.8824 58.5575 27.8106 58.5175 27.7315C58.4775 27.6524 58.4568 27.5676 58.4568 27.482C58.4568 27.3964 58.4775 27.3117 58.5175 27.2326C58.5575 27.1535 58.6162 27.0816 58.6902 27.0211C58.7641 26.9606 58.852 26.9126 58.9486 26.8798C59.0453 26.8471 59.1488 26.8302 59.2535 26.8302Z" fill="#5D3EC5"/>
<path d="M107.505 32.5571H59.2535C59.1488 32.5571 59.0453 32.5402 58.9486 32.5075C58.852 32.4747 58.7641 32.4267 58.6902 32.3662C58.6162 32.3056 58.5575 32.2338 58.5175 32.1547C58.4775 32.0756 58.4568 31.9909 58.4568 31.9053C58.4568 31.8197 58.4775 31.7349 58.5175 31.6558C58.5575 31.5767 58.6162 31.5049 58.6902 31.4443C58.7641 31.3838 58.852 31.3358 58.9486 31.303C59.0453 31.2703 59.1488 31.2534 59.2535 31.2534H107.505C107.716 31.2534 107.919 31.3221 108.068 31.4443C108.218 31.5666 108.302 31.7324 108.302 31.9053C108.297 32.077 108.212 32.2407 108.064 32.3622C107.915 32.4837 107.715 32.5535 107.505 32.5571Z" fill="#5D3EC5"/>
<path d="M107.505 41.4499H59.2535C59.1488 41.4499 59.0453 41.4331 58.9486 41.4003C58.852 41.3675 58.7641 41.3195 58.6902 41.259C58.6162 41.1985 58.5575 41.1266 58.5175 41.0475C58.4775 40.9684 58.4568 40.8837 58.4568 40.7981C58.4568 40.7125 58.4775 40.6277 58.5175 40.5486C58.5575 40.4695 58.6162 40.3977 58.6902 40.3372C58.7641 40.2766 58.852 40.2286 58.9486 40.1959C59.0453 40.1631 59.1488 40.1462 59.2535 40.1462H107.505C107.716 40.1462 107.919 40.2149 108.068 40.3372C108.218 40.4594 108.302 40.6252 108.302 40.7981C108.297 40.9698 108.212 41.1336 108.064 41.255C107.915 41.3765 107.715 41.4463 107.505 41.4499Z" fill="#5D3EC5"/>
<path d="M107.505 45.1981H59.2535C59.1488 45.1981 59.0453 45.1812 58.9486 45.1485C58.852 45.1157 58.7641 45.0677 58.6902 45.0072C58.6162 44.9466 58.5575 44.8748 58.5175 44.7957C58.4775 44.7166 58.4568 44.6318 58.4568 44.5462C58.4568 44.4606 58.4775 44.3759 58.5175 44.2968C58.5575 44.2177 58.6162 44.1459 58.6902 44.0853C58.7641 44.0248 58.852 43.9768 58.9486 43.944C59.0453 43.9113 59.1488 43.8944 59.2535 43.8944H107.505C107.716 43.8944 107.919 43.9631 108.068 44.0853C108.218 44.2076 108.302 44.3734 108.302 44.5462C108.297 44.718 108.212 44.8817 108.064 45.0032C107.915 45.1247 107.715 45.1945 107.505 45.1981Z" fill="#5D3EC5"/>
<path d="M107.505 85.4724H59.2535C59.1488 85.4724 59.0453 85.4555 58.9486 85.4228C58.852 85.39 58.7641 85.342 58.6902 85.2815C58.6162 85.2209 58.5575 85.1491 58.5175 85.07C58.4775 84.9909 58.4568 84.9061 58.4568 84.8205C58.4568 84.7349 58.4775 84.6502 58.5175 84.5711C58.5575 84.492 58.6162 84.4201 58.6902 84.3596C58.7641 84.2991 58.852 84.2511 58.9486 84.2183C59.0453 84.1856 59.1488 84.1687 59.2535 84.1687H107.505C107.716 84.1687 107.919 84.2374 108.068 84.3596C108.218 84.4819 108.302 84.6477 108.302 84.8205C108.297 84.9923 108.212 85.156 108.064 85.2775C107.915 85.399 107.715 85.4688 107.505 85.4724Z" fill="#5D3EC5"/>
<path d="M107.505 89.2204H59.2535C59.1488 89.2204 59.0453 89.2036 58.9486 89.1708C58.852 89.1381 58.7641 89.0901 58.6902 89.0295C58.6162 88.969 58.5575 88.8971 58.5175 88.818C58.4775 88.739 58.4568 88.6542 58.4568 88.5686C58.4568 88.483 58.4775 88.3982 58.5175 88.3191C58.5575 88.2401 58.6162 88.1682 58.6902 88.1077C58.7641 88.0471 58.852 87.9991 58.9486 87.9664C59.0453 87.9336 59.1488 87.9167 59.2535 87.9167H107.505C107.716 87.9167 107.919 87.9854 108.068 88.1077C108.218 88.2299 108.302 88.3957 108.302 88.5686C108.297 88.7404 108.212 88.9041 108.064 89.0256C107.915 89.1471 107.715 89.2169 107.505 89.2204Z" fill="#5D3EC5"/>
<path d="M107.505 99.161H59.2535C59.1488 99.161 59.0453 99.1441 58.9486 99.1114C58.852 99.0786 58.7641 99.0306 58.6902 98.9701C58.6162 98.9095 58.5575 98.8377 58.5175 98.7586C58.4775 98.6795 58.4568 98.5947 58.4568 98.5091C58.4568 98.4235 58.4775 98.3388 58.5175 98.2597C58.5575 98.1806 58.6162 98.1087 58.6902 98.0482C58.7641 97.9877 58.852 97.9397 58.9486 97.9069C59.0453 97.8742 59.1488 97.8573 59.2535 97.8573H107.505C107.61 97.8573 107.713 97.8742 107.81 97.9069C107.907 97.9397 107.995 97.9877 108.068 98.0482C108.142 98.1087 108.201 98.1806 108.241 98.2597C108.281 98.3388 108.302 98.4235 108.302 98.5091C108.297 98.6809 108.212 98.8446 108.064 98.9661C107.915 99.0876 107.715 99.1574 107.505 99.161Z" fill="#5D3EC5"/>
<path d="M107.505 102.909H59.2535C59.1488 102.909 59.0453 102.892 58.9486 102.859C58.852 102.827 58.7641 102.779 58.6902 102.718C58.6162 102.658 58.5575 102.586 58.5175 102.507C58.4775 102.428 58.4568 102.343 58.4568 102.257C58.4568 102.172 58.4775 102.087 58.5175 102.008C58.5575 101.929 58.6162 101.857 58.6902 101.796C58.7641 101.736 58.852 101.688 58.9486 101.655C59.0453 101.622 59.1488 101.605 59.2535 101.605H107.505C107.716 101.605 107.919 101.674 108.068 101.796C108.218 101.919 108.302 102.084 108.302 102.257C108.297 102.429 108.212 102.593 108.064 102.714C107.915 102.836 107.715 102.905 107.505 102.909Z" fill="#5D3EC5"/>
<path d="M128.075 63.0538H76.5797C76.3533 63.0538 76.1362 62.9802 75.9762 62.8492C75.8161 62.7182 75.7262 62.5406 75.7262 62.3554C75.7262 62.1702 75.8161 61.9925 75.9762 61.8615C76.1362 61.7306 76.3533 61.657 76.5797 61.657H128.075C128.301 61.657 128.518 61.7306 128.678 61.8615C128.838 61.9925 128.928 62.1702 128.928 62.3554C128.928 62.5406 128.838 62.7182 128.678 62.8492C128.518 62.9802 128.301 63.0538 128.075 63.0538Z" fill="#EBEBF0"/>
<path d="M128.075 67.5468H76.5797C76.3533 67.5468 76.1362 67.4732 75.9762 67.3423C75.8161 67.2113 75.7262 67.0337 75.7262 66.8484C75.7262 66.6632 75.8161 66.4856 75.9762 66.3546C76.1362 66.2236 76.3533 66.15 76.5797 66.15H128.075C128.301 66.15 128.518 66.2236 128.678 66.3546C128.838 66.4856 128.928 66.6632 128.928 66.8484C128.928 67.0337 128.838 67.2113 128.678 67.3423C128.518 67.4732 128.301 67.5468 128.075 67.5468Z" fill="#EBEBF0"/>
<path d="M118.288 97.997L115.045 117.319C114.907 118.135 115.014 118.966 115.358 119.741L121.161 133.708L124.547 132.847L121.986 118.949C121.934 118.662 121.954 118.369 122.043 118.088L126.453 105.656L128.359 133.685H131.489L134.192 106.005C135.102 101.396 133.423 97.9738 133.423 97.9738L118.288 97.997Z" fill="#3F3D56"/>
<path d="M134.903 80.9561V94.2257C134.903 95.8553 134.59 97.1589 132.598 97.1589H118.715C116.723 97.1589 116.666 95.8553 116.638 94.2257L116.524 85.193C116.524 85.193 113.537 89.5697 111.147 89.1506C108.757 88.7316 101.673 80.7233 101.673 80.7233L105.201 78.3022L111.147 83.1909C111.147 83.1909 112.114 81.4217 113.48 77.4408C114.845 73.4599 119.397 73.4366 119.397 73.4366H131.46C135.813 73.4366 134.903 80.9561 134.903 80.9561Z" fill="#5D3EC5"/>
<path d="M134.817 67.5469C134.817 67.5469 139.227 74.9499 139.455 77.4874C139.682 80.0249 134.96 83.4471 134.96 83.4471L131.432 73.4367H134.789V67.5469H134.817Z" fill="#5D3EC5"/>
<path d="M134.817 67.5469C134.817 67.5469 139.227 74.9499 139.455 77.4874C139.682 80.0249 134.96 83.4471 134.96 83.4471L131.432 73.4367H134.789V67.5469H134.817Z" fill="url(#paint3_linear)"/>
<path d="M134.988 83.447C134.988 83.447 137.862 76.9752 137.549 75.5086C137.236 74.0419 134.817 69.3394 134.817 69.3394V73.4599L130.578 73.5298L134.988 83.447Z" fill="#5D3EC5"/>
<path d="M133.423 97.0891H118.288V97.997H133.423V97.0891Z" fill="#5D3EC5"/>
<path d="M133.423 97.0891H118.288V97.997H133.423V97.0891Z" fill="url(#paint4_linear)"/>
<path d="M127.79 64.4272H123.437V73.5064H127.79V64.4272Z" fill="url(#paint5_linear)"/>
<path d="M127.79 63.4263V73.5065H125.486V72.9012C125.486 72.5431 125.312 72.1997 125.003 71.9464C124.693 71.6932 124.273 71.551 123.836 71.551H123.693C123.15 71.5531 122.611 71.4674 122.107 71.2988C121.604 71.1303 121.146 70.8821 120.761 70.5685C120.375 70.2549 120.068 69.8821 119.859 69.4715C119.649 69.0608 119.541 68.6204 119.54 68.1754V63.4496H127.79V63.4263Z" fill="url(#paint6_linear)"/>
<path d="M120.649 60.3533C121.56 59.9343 122.669 59.8877 123.75 59.8644L125.998 59.8179C126.501 59.7985 127.006 59.8141 127.506 59.8644C127.986 59.9293 128.447 60.0713 128.86 60.2821C129.273 60.4929 129.632 60.7685 129.914 61.0929C130.197 61.4174 130.399 61.7844 130.508 62.1728C130.617 62.5612 130.631 62.9635 130.55 63.3564C130.5 63.5717 130.424 63.7824 130.322 63.985C130.236 64.1318 130.178 64.289 130.152 64.4506C130.2 64.705 130.306 64.9498 130.465 65.1723C130.778 65.8707 130.265 66.6156 129.696 67.1743C129.127 67.7331 128.445 68.3151 128.359 69.06C128.331 69.2928 128.359 69.5722 128.16 69.7584C128.038 69.8498 127.881 69.9043 127.715 69.9128C127.549 69.9212 127.385 69.8832 127.25 69.805C126.989 69.6432 126.776 69.4365 126.624 69.1997C126.652 69.5489 126.055 69.7351 125.685 69.5722C125.511 69.4738 125.365 69.346 125.257 69.1973C125.149 69.0487 125.082 68.8828 125.059 68.7108C125.01 68.3691 124.884 68.0378 124.689 67.7331C124.49 67.5003 124.177 67.3373 124.092 67.0579C123.921 66.5923 124.49 66.0802 124.262 65.6146C124.092 65.2421 123.437 65.1257 122.982 65.2887C122.546 65.4863 122.183 65.7756 121.93 66.1267C122.356 65.6611 122.015 64.8696 121.56 64.4971C120.848 63.8686 119.796 64.404 119.198 63.9617C118.089 63.0771 119.654 60.8189 120.649 60.3533Z" fill="#3F3D56"/>
<path opacity="0.25" d="M126.823 73.4832C126.823 73.4832 125.116 75.299 122.783 75.299C120.45 75.299 113.594 80.7931 113.138 82.446C112.683 84.0989 111.147 83.191 111.147 83.191C111.147 83.191 112.114 81.4217 113.48 77.4408C114.845 73.4599 119.398 73.4366 119.398 73.4366H125.543L126.823 73.4832Z" fill="#5D3EC5"/>
<path d="M124.518 132.614L125.713 135.012L120.905 136.875L116.439 137.131C116.439 137.131 115.67 134.733 117.747 134.523C118.961 134.41 120.117 134.041 121.104 133.452L124.518 132.614Z" fill="#222A72"/>
<path d="M128.331 133.685C127.727 133.892 127.202 134.229 126.812 134.659C126.422 135.089 126.18 135.597 126.112 136.13L125.998 137.131H131.46V133.685H128.331Z" fill="#222A72"/>
<path d="M105.172 78.3254L102.868 75.9974C102.868 75.9974 102.071 73.5064 101.644 75.0429C101.388 75.9043 100.706 77.4641 100.706 77.4641H97.1777C97.1777 77.4641 99.6529 79.6058 100.706 80.0016C101.186 80.1743 101.694 80.2918 102.213 80.3508L105.172 78.3254Z" fill="url(#paint7_linear)"/>
</g>
<defs>
<linearGradient id="paint0_linear" x1="-16.6009" y1="153.38" x2="75.5043" y2="-2.27559" gradientUnits="userSpaceOnUse">
<stop stop-opacity="0"/>
<stop offset="0.85" stop-opacity="0.51"/>
<stop offset="0.99"/>
</linearGradient>
<linearGradient id="paint1_linear" x1="4367.49" y1="244.681" x2="4367.44" y2="272.344" gradientUnits="userSpaceOnUse">
<stop stop-opacity="0"/>
<stop offset="0.85" stop-opacity="0.51"/>
<stop offset="0.99"/>
</linearGradient>
<linearGradient id="paint2_linear" x1="28025.1" y1="9619.8" x2="28019.5" y2="14088.7" gradientUnits="userSpaceOnUse">
<stop stop-opacity="0"/>
<stop offset="0.85" stop-opacity="0.51"/>
<stop offset="0.99"/>
</linearGradient>
<linearGradient id="paint3_linear" x1="4719.92" y1="-455.863" x2="6017.91" y2="-1460.66" gradientUnits="userSpaceOnUse">
<stop stop-opacity="0"/>
<stop offset="0.85" stop-opacity="0.51"/>
<stop offset="0.99"/>
</linearGradient>
<linearGradient id="paint4_linear" x1="6787.77" y1="470.257" x2="6788.06" y2="492.557" gradientUnits="userSpaceOnUse">
<stop stop-opacity="0"/>
<stop offset="0.85" stop-opacity="0.51"/>
<stop offset="0.99"/>
</linearGradient>
<linearGradient id="paint5_linear" x1="124.262" y1="68.9878" x2="131.428" y2="68.8279" gradientUnits="userSpaceOnUse">
<stop stop-color="#ECC4D7"/>
<stop offset="0.42" stop-color="#EFD4D1"/>
<stop offset="1" stop-color="#F2EAC9"/>
</linearGradient>
<linearGradient id="paint6_linear" x1="4920.46" y1="-1332.46" x2="4874.3" y2="-1312.44" gradientUnits="userSpaceOnUse">
<stop stop-color="#ECC4D7"/>
<stop offset="0.42" stop-color="#EFD4D1"/>
<stop offset="1" stop-color="#F2EAC9"/>
</linearGradient>
<linearGradient id="paint7_linear" x1="3975.06" y1="-528.888" x2="4200.02" y2="-528.888" gradientUnits="userSpaceOnUse">
<stop stop-color="#ECC4D7"/>
<stop offset="0.42" stop-color="#EFD4D1"/>
<stop offset="1" stop-color="#F2EAC9"/>
</linearGradient>
<clipPath id="clip0">
<rect width="152.69" height="139" fill="white"/>
</clipPath>
</defs>
</svg>
